<svg xmlns="http://www.w3.org/2000/svg" viewBox="0 0 1254 1254" role="img" aria-labelledby="title desc">
  <title id="title">KoalaByte Blue code signature</title>
  <desc id="desc">Neon cyan terminal-style code-art koala head on a dark background.</desc>
  <defs>
    <radialGradient id="bg" cx="50%" cy="42%" r="78%">
      <stop offset="0%" stop-color="#162225"/>
      <stop offset="70%" stop-color="#0a1114"/>
      <stop offset="100%" stop-color="#05080a"/>
    </radialGradient>
    <filter id="wideGlow" x="-8%" y="-8%" width="116%" height="116%">
      <feGaussianBlur stdDeviation="6" result="blur"/>
      <feColorMatrix in="blur" type="matrix" values="0 0 0 0 0.33  0 0 0 0 0.95  0 0 0 0 1  0 0 0 0.55 0" result="cyanBlur"/>
      <feMerge>
        <feMergeNode in="cyanBlur"/>
        <feMergeNode in="SourceGraphic"/>
      </feMerge>
    </filter>
    <filter id="softNoise">
      <feTurbulence type="fractalNoise" baseFrequency="0.85" numOctaves="2" stitchTiles="stitch"/>
      <feColorMatrix type="saturate" values="0"/>
      <feComponentTransfer>
        <feFuncA type="table" tableValues="0 0.045"/>
      </feComponentTransfer>
    </filter>
  </defs>
  <rect width="100%" height="100%" fill="url(#bg)"/>
  <rect width="100%" height="100%" filter="url(#softNoise)" opacity="0.58"/>
  <g filter="url(#wideGlow)" fill="none" stroke-linecap="round" stroke-linejoin="round">
    <path d="M209 200.5H287M909 200.5H1018M208 201.5H289M909 201.5H1021M208 202.5H290M907 202.5H1022M208 203.5H291M907 203.5H1023M208 204.5H292M907 204.5H1024M171 205.5H172M208 205.5H293M907 205.5H1024M171 206.5H173M208 206.5H293M906 206.5H1025M171 207.5H173M209 207.5H294M906 207.5H1025M1025 208.5H1026M171 209.5H172M209 209.5H294M905 209.5H1025M1025 210.5H1026M170 211.5H171M210 211.5H294M905 211.5H1024M1025 212.5H1026M168 213.5H169M211 213.5H294M904 213.5H1025M210 214.5H295M905 214.5H1025M213 215.5H295M904 215.5H1024M213 216.5H295M904 216.5H1024M213 217.5H296M902 217.5H1024M213 218.5H296M903 218.5H1023M213 219.5H295M902 219.5H1023M214 220.5H296M902 220.5H1023M214 221.5H296M902 221.5H1022M214 222.5H296M901 222.5H1022M214 223.5H296M901 223.5H1021M214 224.5H296M901 224.5H1021M215 225.5H296M900 225.5H1020M215 226.5H297M900 226.5H1019M215 227.5H297M899 227.5H1019M215 228.5H297M899 228.5H1018M216 229.5H298M898 229.5H1018M216 230.5H298M898 230.5H1017M216 231.5H298M898 231.5H1017M217 232.5H299M897 232.5H1016M217 233.5H299M897 233.5H1016M217 234.5H299M897 234.5H1015M218 235.5H300M896 235.5H1015M218 236.5H300M896 236.5H1014M219 237.5H301M895 237.5H1014M219 238.5H301M895 238.5H1013M219 239.5H302M894 239.5H1013M220 240.5H302M894 240.5H1012M220 241.5H303M894 241.5H1012M221 242.5H304M893 242.5H1011M221 243.5H304M893 243.5H1011M222 244.5H305M892 244.5H1010M222 245.5H306M892 245.5H1010M223 246.5H307M891 246.5H1009M224 247.5H307M891 247.5H1009M224 248.5H308M890 248.5H1008M225 249.5H309M890 249.5H1008M226 250.5H310M889 250.5H1007M227 251.5H311M889 251.5H1007M228 252.5H312M888 252.5H1006M229 253.5H313M888 253.5H1006M230 254.5H314M887 254.5H1005M231 255.5H315M887 255.5H1005M232 256.5H316M886 256.5H1004M233 257.5H317M886 257.5H1004M234 258.5H318M885 258.5H1003M236 259.5H319M885 259.5H1002M237 260.5H320M884 260.5H1002M239 261.5H321M884 261.5H1001M240 262.5H322M883 262.5H1000M242 263.5H323M883 263.5H999M244 264.5H324M882 264.5H998M246 265.5H325M882 265.5H997M248 266.5H326M881 266.5H996M250 267.5H327M881 267.5H995M253 268.5H328M880 268.5H994M255 269.5H329M880 269.5H993M258 270.5H330M879 270.5H991M261 271.5H331M879 271.5H990M265 272.5H332M878 272.5H988M268 273.5H333M878 273.5H986M272 274.5H334M877 274.5H984M277 275.5H335M877 275.5H982M281 276.5H336M876 276.5H979M287 277.5H337M876 277.5H976M292 278.5H338M875 278.5H972M299 279.5H339M875 279.5H967M308 280.5H340M874 280.5H960M317 281.5H341M874 281.5H951M328 282.5H342M873 282.5H940M340 283.5H343M873 283.5H927M872 284.5H910M872 285.5H892M543 323.5H546M582 323.5H584M670 323.5H673M707 323.5H709M542 324.5H548M581 324.5H586M669 324.5H674M706 324.5H710M542 325.5H549M581 325.5H587M668 325.5H675M705 325.5H711M541 326.5H550M580 326.5H588M667 326.5H676M704 326.5H712M540 327.5H551M579 327.5H589M666 327.5H677M703 327.5H713M539 328.5H552M578 328.5H590M665 328.5H678M702 328.5H714M538 329.5H553M577 329.5H591M664 329.5H679M701 329.5H715M537 330.5H554M576 330.5H592M663 330.5H680M700 330.5H716M536 331.5H555M575 331.5H593M662 331.5H681M699 331.5H717M535 332.5H556M574 332.5H594M661 332.5H682M698 332.5H718M534 333.5H557M573 333.5H595M660 333.5H683M697 333.5H719M533 334.5H558M572 334.5H596M659 334.5H684M696 334.5H720M532 335.5H559M571 335.5H597M658 335.5H685M695 335.5H721M531 336.5H560M570 336.5H598M657 336.5H686M694 336.5H722M530 337.5H561M569 337.5H599M656 337.5H687M693 337.5H723M529 338.5H562M568 338.5H600M655 338.5H688M692 338.5H724M528 339.5H563M567 339.5H601M654 339.5H689M691 339.5H725M527 340.5H564M566 340.5H602M653 340.5H690M690 340.5H726M526 341.5H565M565 341.5H603M652 341.5H727M525 342.5H566M564 342.5H604M651 342.5H728M524 343.5H567M563 343.5H605M650 343.5H729M523 344.5H568M562 344.5H606M649 344.5H730M522 345.5H569M561 345.5H607M648 345.5H731M521 346.5H570M560 346.5H608M647 346.5H732M520 347.5H571M559 347.5H609M646 347.5H733M519 348.5H572M558 348.5H610M645 348.5H734M518 349.5H573M557 349.5H611M644 349.5H735M517 350.5H574M556 350.5H612M643 350.5H736M516 351.5H575M555 351.5H613M642 351.5H737M515 352.5H576M554 352.5H614M641 352.5H738M514 353.5H577M553 353.5H615M640 353.5H739M513 354.5H578M552 354.5H616M639 354.5H740M512 355.5H579M551 355.5H617M638 355.5H741M511 356.5H580M550 356.5H618M637 356.5H742M510 357.5H581M549 357.5H619M636 357.5H743M509 358.5H582M548 358.5H620M635 358.5H744M508 359.5H583M547 359.5H621M634 359.5H745M507 360.5H584M546 360.5H622M633 360.5H746M506 361.5H585M545 361.5H623M632 361.5H747M505 362.5H586M544 362.5H624M631 362.5H748M504 363.5H587M543 363.5H625M630 363.5H749M503 364.5H588M542 364.5H626M629 364.5H750M502 365.5H589M541 365.5H627M628 365.5H751M501 366.5H590M540 366.5H628M627 366.5H752M500 367.5H591M539 367.5H629M626 367.5H753M499 368.5H592M538 368.5H630M625 368.5H754M498 369.5H593M537 369.5H631M624 369.5H755M497 370.5H594M536 370.5H632M623 370.5H756M496 371.5H595M535 371.5H633M622 371.5H757M495 372.5H596M534 372.5H634M621 372.5H758M494 373.5H597M533 373.5H635M620 373.5H759M493 374.5H598M532 374.5H636M619 374.5H760M492 375.5H599M531 375.5H637M618 375.5H761M491 376.5H600M530 376.5H638M617 376.5H762M490 377.5H601M529 377.5H639M616 377.5H763M489 378.5H602M528 378.5H640M615 378.5H764M488 379.5H603M527 379.5H641M614 379.5H765M487 380.5H604M526 380.5H642M613 380.5H766M486 381.5H605M525 381.5H643M612 381.5H767M485 382.5H606M524 382.5H644M611 382.5H768M484 383.5H607M523 383.5H645M610 383.5H769M483 384.5H608M522 384.5H646M609 384.5H770M482 385.5H609M521 385.5H647M608 385.5H771M481 386.5H610M520 386.5H648M607 386.5H772M480 387.5H611M519 387.5H649M606 387.5H773M479 388.5H612M518 388.5H650M605 388.5H774M478 389.5H613M517 389.5H651M604 389.5H775M477 390.5H614M516 390.5H652M603 390.5H776M476 391.5H615M515 391.5H653M602 391.5H777M475 392.5H616M514 392.5H654M601 392.5H778M474 393.5H617M513 393.5H655M600 393.5H779M473 394.5H618M512 394.5H656M599 394.5H780M472 395.5H619M511 395.5H657M598 395.5H781M471 396.5H620M510 396.5H658M597 396.5H782M470 397.5H621M509 397.5H659M596 397.5H783M469 398.5H622M508 398.5H660M595 398.5H784M468 399.5H623M507 399.5H661M594 399.5H785M467 400.5H624M506 400.5H662M593 400.5H786M466 401.5H625M505 401.5H663M592 401.5H787M465 402.5H626M504 402.5H664M591 402.5H788M464 403.5H627M503 403.5H665M590 403.5H789M463 404.5H628M502 404.5H666M589 404.5H790M462 405.5H629M501 405.5H667M588 405.5H791M461 406.5H630M500 406.5H668M587 406.5H792M460 407.5H631M499 407.5H669M586 407.5H793M459 408.5H632M498 408.5H670M585 408.5H794M458 409.5H633M497 409.5H671M584 409.5H795M457 410.5H634M496 410.5H672M583 410.5H796M456 411.5H635M495 411.5H673M582 411.5H797M455 412.5H636M494 412.5H674M581 412.5H798M454 413.5H637M493 413.5H675M580 413.5H799M453 414.5H638M492 414.5H676M579 414.5H800M452 415.5H639M491 415.5H677M578 415.5H801M451 416.5H640M490 416.5H678M577 416.5H802M450 417.5H641M489 417.5H679M576 417.5H803M449 418.5H642M488 418.5H680M575 418.5H804M448 419.5H643M487 419.5H681M574 419.5H805M447 420.5H644M486 420.5H682M573 420.5H806M446 421.5H645M485 421.5H683M572 421.5H807M445 422.5H646M484 422.5H684M571 422.5H808M444 423.5H647M483 423.5H685M570 423.5H809M443 424.5H648M482 424.5H686M569 424.5H810M442 425.5H649M481 425.5H687M568 425.5H811M441 426.5H650M480 426.5H688M567 426.5H812M440 427.5H651M479 427.5H689M566 427.5H813M439 428.5H652M478 428.5H690M565 428.5H814M438 429.5H653M477 429.5H691M564 429.5H815M437 430.5H654M476 430.5H692M563 430.5H816M436 431.5H655M475 431.5H693M562 431.5H817M435 432.5H656M474 432.5H694M561 432.5H818M434 433.5H657M473 433.5H695M560 433.5H819M433 434.5H658M472 434.5H696M559 434.5H820M432 435.5H659M471 435.5H697M558 435.5H821M431 436.5H660M470 436.5H698M557 436.5H822M430 437.5H661M469 437.5H699M556 437.5H823M429 438.5H662M468 438.5H700M555 438.5H824M428 439.5H663M467 439.5H701M554 439.5H825M427 440.5H664M466 440.5H702M553 440.5H826M426 441.5H665M465 441.5H703M552 441.5H827M425 442.5H666M464 442.5H704M551 442.5H828M424 443.5H667M463 443.5H705M550 443.5H829M423 444.5H668M462 444.5H706M549 444.5H830M422 445.5H669M461 445.5H707M548 445.5H831M421 446.5H670M460 446.5H708M547 446.5H832M420 447.5H671M459 447.5H709M546 447.5H833M419 448.5H672M458 448.5H710M545 448.5H834M418 449.5H673M457 449.5H711M544 449.5H835M417 450.5H674M456 450.5H712M543 450.5H836M416 451.5H675M455 451.5H713M542 451.5H837M415 452.5H676M454 452.5H714M541 452.5H838M414 453.5H677M453 453.5H715M540 453.5H839M413 454.5H678M452 454.5H716M539 454.5H840M412 455.5H679M451 455.5H717M538 455.5H841M411 456.5H680M450 456.5H718M537 456.5H842M410 457.5H681M449 457.5H719M536 457.5H843M409 458.5H682M448 458.5H720M535 458.5H844M408 459.5H683M447 459.5H721M534 459.5H845M407 460.5H684M446 460.5H722M533 460.5H846M406 461.5H685M445 461.5H723M532 461.5H847M405 462.5H686M444 462.5H724M531 462.5H848M404 463.5H687M443 463.5H725M530 463.5H849M403 464.5H688M442 464.5H726M529 464.5H850M402 465.5H689M441 465.5H727M528 465.5H851M401 466.5H690M440 466.5H728M527 466.5H852M400 467.5H691M439 467.5H729M526 467.5H853M399 468.5H692M438 468.5H730M525 468.5H854M398 469.5H693M437 469.5H731M524 469.5H855M397 470.5H694M436 470.5H732M523 470.5H856M396 471.5H695M435 471.5H733M522 471.5H857M395 472.5H696M434 472.5H734M521 472.5H858M394 473.5H697M433 473.5H735M520 473.5H859M393 474.5H698M432 474.5H736M519 474.5H860M392 475.5H699M431 475.5H737M518 475.5H861M391 476.5H700M430 476.5H738M517 476.5H862M390 477.5H701M429 477.5H739M516 477.5H863M389 478.5H702M428 478.5H740M515 478.5H864M388 479.5H703M427 479.5H741M514 479.5H865M387 480.5H704M426 480.5H742M513 480.5H866M386 481.5H705M425 481.5H743M512 481.5H867M385 482.5H706M424 482.5H744M511 482.5H868M384 483.5H707M423 483.5H745M510 483.5H869M383 484.5H708M422 484.5H746M509 484.5H870M382 485.5H709M421 485.5H747M508 485.5H871M381 486.5H710M420 486.5H748M507 486.5H872M380 487.5H711M419 487.5H749M506 487.5H873M379 488.5H712M418 488.5H750M505 488.5H874M378 489.5H713M417 489.5H751M504 489.5H875M377 490.5H714M416 490.5H752M503 490.5H876M376 491.5H715M415 491.5H753M502 491.5H877M375 492.5H716M414 492.5H754M501 492.5H878M374 493.5H717M413 493.5H755M500 493.5H879M373 494.5H718M412 494.5H756M499 494.5H880M372 495.5H719M411 495.5H757M498 495.5H881M371 496.5H720M410 496.5H758M497 496.5H882M370 497.5H721M409 497.5H759M496 497.5H883M369 498.5H722M408 498.5H760M495 498.5H884M368 499.5H723M407 499.5H761M494 499.5H885M367 500.5H724M406 500.5H762M493 500.5H886M366 501.5H725M405 501.5H763M492 501.5H887M365 502.5H726M404 502.5H764M491 502.5H888M364 503.5H727M403 503.5H765M490 503.5H889M363 504.5H728M402 504.5H766M489 504.5H890M362 505.5H729M401 505.5H767M488 505.5H891M361 506.5H730M400 506.5H768M487 506.5H892M360 507.5H731M399 507.5H769M486 507.5H893M359 508.5H732M398 508.5H770M485 508.5H894M358 509.5H733M397 509.5H771M484 509.5H895M357 510.5H734M396 510.5H772M483 510.5H896M356 511.5H735M395 511.5H773M482 511.5H897M355 512.5H736M394 512.5H774M481 512.5H898M354 513.5H737M393 513.5H775M480 513.5H899M353 514.5H738M392 514.5H776M479 514.5H900M352 515.5H739M391 515.5H777M478 515.5H901M351 516.5H740M390 516.5H778M477 516.5H902M350 517.5H741M389 517.5H779M476 517.5H903M349 518.5H742M388 518.5H780M475 518.5H904M348 519.5H743M387 519.5H781M474 519.5H905M347 520.5H744M386 520.5H782M473 520.5H906M346 521.5H745M385 521.5H783M472 521.5H907M345 522.5H746M384 522.5H784M471 522.5H908M344 523.5H747M383 523.5H785M470 523.5H909M343 524.5H748M382 524.5H786M469 524.5H910M342 525.5H749M381 525.5H787M468 525.5H911M341 526.5H750M380 526.5H788M467 526.5H912M340 527.5H751M379 527.5H789M466 527.5H913M339 528.5H752M378 528.5H790M465 528.5H914M338 529.5H753M377 529.5H791M464 529.5H915M337 530.5H754M376 530.5H792M463 530.5H916M336 531.5H755M375 531.5H793M462 531.5H917M335 532.5H756M374 532.5H794M461 532.5H918M334 533.5H757M373 533.5H795M460 533.5H919M333 534.5H758M372 534.5H796M459 534.5H920M332 535.5H759M371 535.5H797M458 535.5H921M331 536.5H760M370 536.5H798M457 536.5H922M330 537.5H761M369 537.5H799M456 537.5H923M329 538.5H762M368 538.5H800M455 538.5H924M328 539.5H763M367 539.5H801M454 539.5H925M327 540.5H764M366 540.5H802M453 540.5H926M326 541.5H765M365 541.5H803M452 541.5H927M325 542.5H766M364 542.5H804M451 542.5H928M324 543.5H767M363 543.5H805M450 543.5H929M323 544.5H768M362 544.5H806M449 544.5H930M322 545.5H769M361 545.5H807M448 545.5H931M321 546.5H770M360 546.5H808M447 546.5H932M320 547.5H771M359 547.5H809M446 547.5H933M319 548.5H772M358 548.5H810M445 548.5H934M318 549.5H773M357 549.5H811M444 549.5H935M317 550.5H774M356 550.5H812M443 550.5H936M316 551.5H775M355 551.5H813M442 551.5H937M315 552.5H776M354 552.5H814M441 552.5H938M314 553.5H777M353 553.5H815M440 553.5H939M313 554.5H778M352 554.5H816M439 554.5H940M312 555.5H779M351 555.5H817M438 555.5H941M311 556.5H780M350 556.5H818M437 556.5H942M310 557.5H781M349 557.5H819M436 557.5H943M309 558.5H782M348 558.5H820M435 558.5H944M308 559.5H783M347 559.5H821M434 559.5H945M307 560.5H784M346 560.5H822M433 560.5H946M306 561.5H785M345 561.5H823M432 561.5H947M305 562.5H786M344 562.5H824M431 562.5H948M304 563.5H787M343 563.5H825M430 563.5H949M303 564.5H788M342 564.5H826M429 564.5H950M302 565.5H789M341 565.5H827M428 565.5H951M301 566.5H790M340 566.5H828M427 566.5H952M300 567.5H791M339 567.5H829M426 567.5H953M299 568.5H792M338 568.5H830M425 568.5H954M298 569.5H793M337 569.5H831M424 569.5H955M297 570.5H794M336 570.5H832M423 570.5H956M296 571.5H795M335 571.5H833M422 571.5H957M295 572.5H796M334 572.5H834M421 572.5H958M294 573.5H797M333 573.5H835M420 573.5H959M293 574.5H798M332 574.5H836M419 574.5H960M292 575.5H799M331 575.5H837M418 575.5H961M291 576.5H800M330 576.5H838M417 576.5H962M290 577.5H801M329 577.5H839M416 577.5H963M289 578.5H802M328 578.5H840M415 578.5H964M288 579.5H803M327 579.5H841M414 579.5H965M287 580.5H804M326 580.5H842M413 580.5H966M286 581.5H805M325 581.5H843M412 581.5H967M285 582.5H806M324 582.5H844M411 582.5H968M284 583.5H807M323 583.5H845M410 583.5H969M283 584.5H808M322 584.5H846M409 584.5H970M282 585.5H809M321 585.5H847M408 585.5H971M281 586.5H810M320 586.5H848M407 586.5H972M280 587.5H811M319 587.5H849M406 587.5H973M279 588.5H812M318 588.5H850M405 588.5H974M278 589.5H813M317 589.5H851M404 589.5H975M277 590.5H814M316 590.5H852M403 590.5H976M276 591.5H815M315 591.5H853M402 591.5H977M275 592.5H816M314 592.5H854M401 592.5H978M274 593.5H817M313 593.5H855M400 593.5H979M273 594.5H818M312 594.5H856M399 594.5H980M272 595.5H819M311 595.5H857M398 595.5H981M271 596.5H820M310 596.5H858M397 596.5H982M270 597.5H821M309 597.5H859M396 597.5H983M269 598.5H822M308 598.5H860M395 598.5H984M268 599.5H823M307 599.5H861M394 599.5H985M267 600.5H824M306 600.5H862M393 600.5H986M266 601.5H825M305 601.5H863M392 601.5H987M265 602.5H826M304 602.5H864M391 602.5H988M264 603.5H827M303 603.5H865M390 603.5H989M263 604.5H828M302 604.5H866M389 604.5H990M262 605.5H829M301 605.5H867M388 605.5H991M261 606.5H830M300 606.5H868M387 606.5H992M260 607.5H831M299 607.5H869M386 607.5H993M259 608.5H832M298 608.5H870M385 608.5H994M258 609.5H833M297 609.5H871M384 609.5H995M257 610.5H834M296 610.5H872M383 610.5H996M256 611.5H835M295 611.5H873M382 611.5H997M255 612.5H836M294 612.5H874M381 612.5H998M254 613.5H837M293 613.5H875M380 613.5H999M253 614.5H838M292 614.5H876M379 614.5H1000M252 615.5H839M291 615.5H877M378 615.5H1001M251 616.5H840M290 616.5H878M377 616.5H1002M250 617.5H841M289 617.5H879M376 617.5H1003M249 618.5H842M288 618.5H880M375 618.5H1004M248 619.5H843M287 619.5H881M374 619.5H1005M247 620.5H844M286 620.5H882M373 620.5H1006M246 621.5H845M285 621.5H883M372 621.5H1007M245 622.5H846M284 622.5H884M371 622.5H1008M244 623.5H847M283 623.5H885M370 623.5H1009M243 624.5H848M282 624.5H886M369 624.5H1010M242 625.5H849M281 625.5H887M368 625.5H1011M241 626.5H850M280 626.5H888M367 626.5H1012M240 627.5H851M279 627.5H889M366 627.5H1013M239 628.5H852M278 628.5H890M365 628.5H1014M238 629.5H853M277 629.5H891M364 629.5H1015M237 630.5H854M276 630.5H892M363 630.5H1016M236 631.5H855M275 631.5H893M362 631.5H1017M235 632.5H856M274 632.5H894M361 632.5H1018M234 633.5H857M273 633.5H895M360 633.5H1019M233 634.5H858M272 634.5H896M359 634.5H1020M232 635.5H859M271 635.5H897M358 635.5H1021M231 636.5H860M270 636.5H898M357 636.5H1022M230 637.5H861M269 637.5H899M356 637.5H1023M229 638.5H862M268 638.5H900M355 638.5H1024M228 639.5H863M267 639.5H901M354 639.5H1025M227 640.5H864M266 640.5H902M353 640.5H1026M226 641.5H865M265 641.5H903M352 641.5H1027M225 642.5H866M264 642.5H904M351 642.5H1028M224 643.5H867M263 643.5H905M350 643.5H1029M223 644.5H868M262 644.5H906M349 644.5H1030M222 645.5H869M261 645.5H907M348 645.5H1031M221 646.5H870M260 646.5H908M347 646.5H1032M220 647.5H871M259 647.5H909M346 647.5H1033M219 648.5H872M258 648.5H910M345 648.5H1034M218 649.5H873M257 649.5H911M344 649.5H1035M217 650.5H874M256 650.5H912M343 650.5H1036M216 651.5H875M255 651.5H913M342 651.5H1037M215 652.5H876M254 652.5H914M341 652.5H1038M214 653.5H877M253 653.5H915M340 653.5H1039M213 654.5H878M252 654.5H916M339 654.5H1040M212 655.5H879M251 655.5H917M338 655.5H1041M211 656.5H880M250 656.5H918M337 656.5H1042M210 657.5H881M249 657.5H919M336 657.5H1043M209 658.5H882M248 658.5H920M335 658.5H1044M208 659.5H883M247 659.5H921M334 659.5H1045M207 660.5H884M246 660.5H922M333 660.5H1046M206 661.5H885M245 661.5H923M332 661.5H1047M205 662.5H886M244 662.5H924M331 662.5H1048M204 663.5H887M243 663.5H925M330 663.5H1049M203 664.5H888M242 664.5H926M329 664.5H1050M202 665.5H889M241 665.5H927M328 665.5H1051M201 666.5H890M240 666.5H928M327 666.5H1052M200 667.5H891M239 667.5H929M326 667.5H1053M199 668.5H892M238 668.5H930M325 668.5H1054M198 669.5H893M237 669.5H931M324 669.5H1055M197 670.5H894M236 670.5H932M323 670.5H1056M196 671.5H895M235 671.5H933M322 671.5H1057M195 672.5H896M234 672.5H934M321 672.5H1058M194 673.5H897M233 673.5H935M320 673.5H1059M193 674.5H898M232 674.5H936M319 674.5H1060M192 675.5H899M231 675.5H937M318 675.5H1061M191 676.5H900M230 676.5H938M317 676.5H1062M190 677.5H901M229 677.5H939M316 677.5H1063M189 678.5H902M228 678.5H940M315 678.5H1064M188 679.5H903M227 679.5H941M314 679.5H1065M187 680.5H904M226 680.5H942M313 680.5H1066M186 681.5H905M225 681.5H943M312 681.5H1067M185 682.5H906M224 682.5H944M311 682.5H1068M184 683.5H907M223 683.5H945M310 683.5H1069M183 684.5H908M222 684.5H946M309 684.5H1070M182 685.5H909M221 685.5H947M308 685.5H1071M181 686.5H910M220 686.5H948M307 686.5H1072M180 687.5H911M219 687.5H949M306 687.5H1073M179 688.5H912M218 688.5H950M305 688.5H1074M178 689.5H913M217 689.5H951M304 689.5H1075M177 690.5H914M216 690.5H952M303 690.5H1076M176 691.5H915M215 691.5H953M302 691.5H1077M175 692.5H916M214 692.5H954M301 692.5H1078M174 693.5H917M213 693.5H955M300 693.5H1079M173 694.5H918M212 694.5H956M299 694.5H1080M172 695.5H919M211 695.5H957M298 695.5H1081M171 696.5H920M210 696.5H958M297 696.5H1082M170 697.5H921M209 697.5H959M296 697.5H1083M169 698.5H922M208 698.5H960M295 698.5H1084M168 699.5H923M207 699.5H961M294 699.5H1085M167 700.5H924M206 700.5H962M293 700.5H1086M166 701.5H925M205 701.5H963M292 701.5H1087M165 702.5H926M204 702.5H964M291 702.5H1088M164 703.5H927M203 703.5H965M290 703.5H1089M163 704.5H928M202 704.5H966M289 704.5H1090M162 705.5H929M201 705.5H967M288 705.5H1091M161 706.5H930M200 706.5H968M287 706.5H1092M160 707.5H931M199 707.5H969M286 707.5H1093M159 708.5H932M198 708.5H970M285 708.5H1094M158 709.5H933M197 709.5H971M284 709.5H1095M157 710.5H934M196 710.5H972M283 710.5H1096M156 711.5H935M195 711.5H973M282 711.5H1097M155 712.5H936M194 712.5H974M281 712.5H1098M154 713.5H937M193 713.5H975M280 713.5H1099M153 714.5H938M192 714.5H976M279 714.5H1100M152 715.5H939M191 715.5H977M278 715.5H1101M151 716.5H940M190 716.5H978M277 716.5H1102M150 717.5H941M189 717.5H979M276 717.5H1103M149 718.5H942M188 718.5H980M275 718.5H1104M148 719.5H943M187 719.5H981M274 719.5H1105M147 720.5H944M186 720.5H982M273 720.5H1106M146 721.5H945M185 721.5H983M272 721.5H1107M145 722.5H946M184 722.5H984M271 722.5H1108M144 723.5H947M183 723.5H985M270 723.5H1109M143 724.5H948M182 724.5H986M269 724.5H1110M142 725.5H949M181 725.5H987M268 725.5H1111M141 726.5H950M180 726.5H988M267 726.5H1112M140 727.5H951M179 727.5H989M266 727.5H1113M139 728.5H952M178 728.5H990M265 728.5H1114M138 729.5H953M177 729.5H991M264 729.5H1115M137 730.5H954M176 730.5H992M263 730.5H1116M136 731.5H955M175 731.5H993M262 731.5H1117M135 732.5H956M174 732.5H994M261 732.5H1118M134 733.5H957M173 733.5H995M260 733.5H1119M133 734.5H958M172 734.5H996M259 734.5H1120M132 735.5H959M171 735.5H997M258 735.5H1121M131 736.5H960M170 736.5H998M257 736.5H1122M130 737.5H961M169 737.5H999M256 737.5H1123M129 738.5H962M168 738.5H1000M255 738.5H1124M128 739.5H963M167 739.5H1001M254 739.5H1125M127 740.5H964M166 740.5H1002M253 740.5H1126M126 741.5H965M165 741.5H1003M252 741.5H1127M125 742.5H966M164 742.5H1004M251 742.5H1128M124 743.5H967M163 743.5H1005M250 743.5H1129M123 744.5H968M162 744.5H1006M249 744.5H1130M122 745.5H969M161 745.5H1007M248 745.5H1131M121 746.5H970M160 746.5H1008M247 746.5H1132M120 747.5H971M159 747.5H1009M246 747.5H1133M119 748.5H972M158 748.5H1010M245 748.5H1134M118 749.5H973M157 749.5H1011M244 749.5H1135M117 750.5H974M156 750.5H1012M243 750.5H1136M116 751.5H975M155 751.5H1013M242 751.5H1137M115 752.5H976M154 752.5H1014M241 752.5H1138M114 753.5H977M153 753.5H1015M240 753.5H1139M113 754.5H978M152 754.5H1016M239 754.5H1140M112 755.5H979M151 755.5H1017M238 755.5H1141M111 756.5H980M150 756.5H1018M237 756.5H1142M110 757.5H981M149 757.5H1019M236 757.5H1143M109 758.5H982M148 758.5H1020M235 758.5H1144M108 759.5H983M147 759.5H1021M234 759.5H1145M107 760.5H984M146 760.5H1022M233 760.5H1146M106 761.5H985M145 761.5H1023M232 761.5H1147M105 762.5H986M144 762.5H1024M231 762.5H1148M104 763.5H987M143 763.5H1025M230 763.5H1149M103 764.5H988M142 764.5H1026M229 764.5H1150M102 765.5H989M141 765.5H1027M228 765.5H1151M101 766.5H990M140 766.5H1028M227 766.5H1152M100 767.5H991M139 767.5H1029M226 767.5H1153M99 768.5H992M138 768.5H1030M225 768.5H1154M98 769.5H993M137 769.5H1031M224 769.5H1155M97 770.5H994M136 770.5H1032M223 770.5H1156M96 771.5H995M135 771.5H1033M222 771.5H1157M95 772.5H996M134 772.5H1034M221 772.5H1158M94 773.5H997M133 773.5H1035M220 773.5H1159M93 774.5H998M132 774.5H1036M219 774.5H1160M92 775.5H999M131 775.5H1037M218 775.5H1161M91 776.5H1000M130 776.5H1038M217 776.5H1162M90 777.5H1001M129 777.5H1039M216 777.5H1163M89 778.5H1002M128 778.5H1040M215 778.5H1164M88 779.5H1003M127 779.5H1041M214 779.5H1165M87 780.5H1004M126 780.5H1042M213 780.5H1166M86 781.5H1005M125 781.5H1043M212 781.5H1167M85 782.5H1006M124 782.5H1044M211 782.5H1168M84 783.5H1007M123 783.5H1045M210 783.5H1169M83 784.5H1008M122 784.5H1046M209 784.5H1170M82 785.5H1009M121 785.5H1047M208 785.5H1171M81 786.5H1010M120 786.5H1048M207 786.5H1172M80 787.5H1011M119 787.5H1049M206 787.5H1173M79 788.5H1012M118 788.5H1050M205 788.5H1174M78 789.5H1013M117 789.5H1051M204 789.5H1175M77 790.5H1014M116 790.5H1052M203 790.5H1176M76 791.5H1015M115 791.5H1053M202 791.5H1177M75 792.5H1016M114 792.5H1054M201 792.5H1178M74 793.5H1017M113 793.5H1055M200 793.5H1179M73 794.5H1018M112 794.5H1056M199 794.5H1180M72 795.5H1019M111 795.5H1057M198 795.5H1181M71 796.5H1020M110 796.5H1058M197 796.5H1182M70 797.5H1021M109 797.5H1059M196 797.5H1183M69 798.5H1022M108 798.5H1060M195 798.5H1184M68 799.5H1023M107 799.5H1061M194 799.5H1185M67 800.5H1024M106 800.5H1062M193 800.5H1186M66 801.5H1025M105 801.5H1063M192 801.5H1187M65 802.5H1026M104 802.5H1064M191 802.5H1188M64 803.5H1027M103 803.5H1065M190 803.5H1189M63 804.5H1028M102 804.5H1066M189 804.5H1190M62 805.5H1029M101 805.5H1067M188 805.5H1191M61 806.5H1030M100 806.5H1068M187 806.5H1192M60 807.5H1031M99 807.5H1069M186 807.5H1193M59 808.5H1032M98 808.5H1070M185 808.5H1194M58 809.5H1033M97 809.5H1071M184 809.5H1195M57 810.5H1034M96 810.5H1072M183 810.5H1196M56 811.5H1035M95 811.5H1073M182 811.5H1197M55 812.5H1036M94 812.5H1074M181 812.5H1198M54 813.5H1037M93 813.5H1075M180 813.5H1199M53 814.5H1038M92 814.5H1076M179 814.5H1200M52 815.5H1039M91 815.5H1077M178 815.5H1201M51 816.5H1040M90 816.5H1078M177 816.5H1202M50 817.5H1041M89 817.5H1079M176 817.5H1203M49 818.5H1042M88 818.5H1080M175 818.5H1204M48 819.5H1043M87 819.5H1081M174 819.5H1205M47 820.5H1044M86 820.5H1082M173 820.5H1206M46 821.5H1045M85 821.5H1083M172 821.5H1207M45 822.5H1046M84 822.5H1084M171 822.5H1208M44 823.5H1047M83 823.5H1085M170 823.5H1209M43 824.5H1048M82 824.5H1086M169 824.5H1210M42 825.5H1049M81 825.5H1087M168 825.5H1211M41 826.5H1050M80 826.5H1088M167 826.5H1212M40 827.5H1051M79 827.5H1089M166 827.5H1213M39 828.5H1052M78 828.5H1090M165 828.5H1214M38 829.5H1053M77 829.5H1091M164 829.5H1215M37 830.5H1054M76 830.5H1092M163 830.5H1216M36 831.5H1055M75 831.5H1093M162 831.5H1217M35 832.5H1056M74 832.5H1094M161 832.5H1218M34 833.5H1057M73 833.5H1095M160 833.5H1219M33 834.5H1058M72 834.5H1096M159 834.5H1220M32 835.5H1059M71 835.5H1097M158 835.5H1221M31 836.5H1060M70 836.5H1098M157 836.5H1222M30 837.5H1061M69 837.5H1099M156 837.5H1223M29 838.5H1062M68 838.5H1100M155 838.5H1224M28 839.5H1063M67 839.5H1101M154 839.5H1225M27 840.5H1064M66 840.5H1102M153 840.5H1226M26 841.5H1065M65 841.5H1103M152 841.5H1227M25 842.5H1066M64 842.5H1104M151 842.5H1228M24 843.5H1067M63 843.5H1105M150 843.5H1229M23 844.5H1068M62 844.5H1106M149 844.5H1230M22 845.5H1069M61 845.5H1107M148 845.5H1231M21 846.5H1070M60 846.5H1108M147 846.5H1232M20 847.5H1071M59 847.5H1109M146 847.5H1233M19 848.5H1072M58 848.5H1110M145 848.5H1234M18 849.5H1073M57 849.5H1111M144 849.5H1235M17 850.5H1074M56 850.5H1112M143 850.5H1236M16 851.5H1075M55 851.5H1113M142 851.5H1237M15 852.5H1076M54 852.5H1114M141 852.5H1238M14 853.5H1077M53 853.5H1115M140 853.5H1239M13 854.5H1078M52 854.5H1116M139 854.5H1240M12 855.5H1079M51 855.5H1117M138 855.5H1241M11 856.5H1080M50 856.5H1118M137 856.5H1242M10 857.5H1081M49 857.5H1119M136 857.5H1243M9 858.5H1082M48 858.5H1120M135 858.5H1244M8 859.5H1083M47 859.5H1121M134 859.5H1245M7 860.5H1084M46 860.5H1122M133 860.5H1246M6 861.5H1085M45 861.5H1123M132 861.5H1247M5 862.5H1086M44 862.5H1124M131 862.5H1248M4 863.5H1087M43 863.5H1125M130 863.5H1249M3 864.5H1088M42 864.5H1126M129 864.5H1250M2 865.5H1089M41 865.5H1127M128 865.5H1251M1 866.5H1090M40 866.5H1128M127 866.5H1252M0 867.5H1091M39 867.5H1129M126 867.5H1253M0 868.5H1092M38 868.5H1130M125 868.5H1254M0 869.5H1093M37 869.5H1131M124 869.5H1254M0 870.5H1094M36 870.5H1132M123 870.5H1254M0 871.5H1095M35 871.5H1133M122 871.5H1254M0 872.5H1096M34 872.5H1134M121 872.5H1254M0 873.5H1097M33 873.5H1135M120 873.5H1254M0 874.5H1098M32 874.5H1136M119 874.5H1254M0 875.5H1099M31 875.5H1137M118 875.5H1254M0 876.5H1100M30 876.5H1138M117 876.5H1254M0 877.5H1101M29 877.5H1139M116 877.5H1254M0 878.5H1102M28 878.5H1140M115 878.5H1254M0 879.5H1103M27 879.5H1141M114 879.5H1254M0 880.5H1104M26 880.5H1142M113 880.5H1254M0 881.5H1105M25 881.5H1143M112 881.5H1254M0 882.5H1106M24 882.5H1144M111 882.5H1254M0 883.5H1107M23 883.5H1145M110 883.5H1254M0 884.5H1108M22 884.5H1146M109 884.5H1254M0 885.5H1109M21 885.5H1147M108 885.5H1254M0 886.5H1110M20 886.5H1148M107 886.5H1254M0 887.5H1111M19 887.5H1149M106 887.5H1254M0 888.5H1112M18 888.5H1150M105 888.5H1254M0 889.5H1113M17 889.5H1151M104 889.5H1254M0 890.5H1114M16 890.5H1152M103 890.5H1254M0 891.5H1115M15 891.5H1153M102 891.5H1254M0 892.5H1116M14 892.5H1154M101 892.5H1254M0 893.5H1117M13 893.5H1155M100 893.5H1254M0 894.5H1118M12 894.5H1156M99 894.5H1254M0 895.5H1119M11 895.5H1157M98 895.5H1254M0 896.5H1120M10 896.5H1158M97 896.5H1254M0 897.5H1121M9 897.5H1159M96 897.5H1254M0 898.5H1122M8 898.5H1160M95 898.5H1254M0 899.5H1123M7 899.5H1161M94 899.5H1254M0 900.5H1124M6 900.5H1162M93 900.5H1254M0 901.5H1125M5 901.5H1163M92 901.5H1254M0 902.5H1126M4 902.5H1164M91 902.5H1254M0 903.5H1127M3 903.5H1165M90 903.5H1254M0 904.5H1128M2 904.5H1166M89 904.5H1254M0 905.5H1129M1 905.5H1167M88 905.5H1254M0 906.5H1130M0 906.5H1168M87 906.5H1254M0 907.5H1131M0 907.5H1169M86 907.5H1254M0 908.5H1132M0 908.5H1170M85 908.5H1254M0 909.5H1133M0 909.5H1171M84 909.5H1254M0 910.5H1134M0 910.5H1172M83 910.5H1254M0 911.5H1135M0 911.5H1173M82 911.5H1254M0 912.5H1136M0 912.5H1174M81 912.5H1254M0 913.5H1137M0 913.5H1175M80 913.5H1254M0 914.5H1138M0 914.5H1176M79 914.5H1254M0 915.5H1139M0 915.5H1177M78 915.5H1254M0 916.5H1140M0 916.5H1178M77 916.5H1254M0 917.5H1141M0 917.5H1179M76 917.5H1254M0 918.5H1142M0 918.5H1180M75 918.5H1254M0 919.5H1143M0 919.5H1181M74 919.5H1254M0 920.5H1144M0 920.5H1182M73 920.5H1254M0 921.5H1145M0 921.5H1183M72 921.5H1254M0 922.5H1146M0 922.5H1184M71 922.5H1254M0 923.5H1147M0 923.5H1185M70 923.5H1254M0 924.5H1148M0 924.5H1186M69 924.5H1254M0 925.5H1149M0 925.5H1187M68 925.5H1254M0 926.5H1150M0 926.5H1188M67 926.5H1254M0 927.5H1151M0 927.5H1189M66 927.5H1254M0 928.5H1152M0 928.5H1190M65 928.5H1254M0 929.5H1153M0 929.5H1191M64 929.5H1254M0 930.5H1154M0 930.5H1192M63 930.5H1254M0 931.5H1155M0 931.5H1193M62 931.5H1254M0 932.5H1156M0 932.5H1194M61 932.5H1254M0 933.5H1157M0 933.5H1195M60 933.5H1254M0 934.5H1158M0 934.5H1196M59 934.5H1254M0 935.5H1159M0 935.5H1197M58 935.5H1254M0 936.5H1160M0 936.5H1198M57 936.5H1254M0 937.5H1161M0 937.5H1199M56 937.5H1254M0 938.5H1162M0 938.5H1200M55 938.5H1254M0 939.5H1163M0 939.5H1201M54 939.5H1254M0 940.5H1164M0 940.5H1202M53 940.5H1254M0 941.5H1165M0 941.5H1203M52 941.5H1254M0 942.5H1166M0 942.5H1204M51 942.5H1254M0 943.5H1167M0 943.5H1205M50 943.5H1254M0 944.5H1168M0 944.5H1206M49 944.5H1254M0 945.5H1169M0 945.5H1207M48 945.5H1254M0 946.5H1170M0 946.5H1208M47 946.5H1254M0 947.5H1171M0 947.5H1209M46 947.5H1254M0 948.5H1172M0 948.5H1210M45 948.5H1254M0 949.5H1173M0 949.5H1211M44 949.5H1254M0 950.5H1174M0 950.5H1212M43 950.5H1254M0 951.5H1175M0 951.5H1213M42 951.5H1254M0 952.5H1176M0 952.5H1214M41 952.5H1254M0 953.5H1177M0 953.5H1215M40 953.5H1254M0 954.5H1178M0 954.5H1216M39 954.5H1254M0 955.5H1179M0 955.5H1217M38 955.5H1254M0 956.5H1180M0 956.5H1218M37 956.5H1254M0 957.5H1181M0 957.5H1219M36 957.5H1254M0 958.5H1182M0 958.5H1220M35 958.5H1254M0 959.5H1183M0 959.5H1221M34 959.5H1254M0 960.5H1184M0 960.5H1222M33 960.5H1254M0 961.5H1185M0 961.5H1223M32 961.5H1254M0 962.5H1186M0 962.5H1224M31 962.5H1254M0 963.5H1187M0 963.5H1225M30 963.5H1254M0 964.5H1188M0 964.5H1226M29 964.5H1254M0 965.5H1189M0 965.5H1227M28 965.5H1254M0 966.5H1190M0 966.5H1228M27 966.5H1254M0 967.5H1191M0 967.5H1229M26 967.5H1254M0 968.5H1192M0 968.5H1230M25 968.5H1254M0 969.5H1193M0 969.5H1231M24 969.5H1254M0 970.5H1194M0 970.5H1232M23 970.5H1254M0 971.5H1195M0 971.5H1233M22 971.5H1254M0 972.5H1196M0 972.5H1234M21 972.5H1254M0 973.5H1197M0 973.5H1235M20 973.5H1254M0 974.5H1198M0 974.5H1236M19 974.5H1254M0 975.5H1199M0 975.5H1237M18 975.5H1254M0 976.5H1200M0 976.5H1238M17 976.5H1254M0 977.5H1201M0 977.5H1239M16 977.5H1254M0 978.5H1202M0 978.5H1240M15 978.5H1254M0 979.5H1203M0 979.5H1241M14 979.5H1254M0 980.5H1204M0 980.5H1242M13 980.5H1254M0 981.5H1205M0 981.5H1243M12 981.5H1254M0 982.5H1206M0 982.5H1244M11 982.5H1254M0 983.5H1207M0 983.5H1245M10 983.5H1254M0 984.5H1208M0 984.5H1246M9 984.5H1254M0 985.5H1209M0 985.5H1247M8 985.5H1254M0 986.5H1210M0 986.5H1248M7 986.5H1254M0 987.5H1211M0 987.5H1249M6 987.5H1254M0 988.5H1212M0 988.5H1250M5 988.5H1254M0 989.5H1213M0 989.5H1251M4 989.5H1254M0 990.5H1214M0 990.5H1252M3 990.5H1254M0 991.5H1215M0 991.5H1253M2 991.5H1254M0 992.5H1216M0 992.5H1254M1 992.5H1254M0 993.5H1217M0 993.5H1254M0 994.5H1218M0 994.5H1254M0 995.5H1219M0 995.5H1254M0 996.5H1220M0 996.5H1254M0 997.5H1221M0 997.5H1254M0 998.5H1222M0 998.5H1254M0 999.5H1223M0 999.5H1254M0 1000.5H1224M0 1000.5H1254M0 1001.5H1225M0 1001.5H1254M0 1002.5H1226M0 1002.5H1254M0 1003.5H1227M0 1003.5H1254M0 1004.5H1228M0 1004.5H1254M0 1005.5H1229M0 1005.5H1254M0 1006.5H1230M0 1006.5H1254M0 1007.5H1231M0 1007.5H1254M0 1008.5H1232M0 1008.5H1254M0 1009.5H1233M0 1009.5H1254M0 1010.5H1234M0 1010.5H1254M0 1011.5H1235M0 1011.5H1254M0 1012.5H1236M0 1012.5H1254M0 1013.5H1237M0 1013.5H1254M0 1014.5H1238M0 1014.5H1254M0 1015.5H1239M0 1015.5H1254M0 1016.5H1240M0 1016.5H1254M0 1017.5H1241M0 1017.5H1254M0 1018.5H1242M0 1018.5H1254M0 1019.5H1243M0 1019.5H1254M0 1020.5H1244M0 1020.5H1254M0 1021.5H1245M0 1021.5H1254M0 1022.5H1246M0 1022.5H1254M0 1023.5H1247M0 1023.5H1254M0 1024.5H1248M0 1024.5H1254M0 1025.5H1249M0 1025.5H1254M0 1026.5H1250M0 1026.5H1254M0 1027.5H1251M0 1027.5H1254M0 1028.5H1252M0 1028.5H1254M0 1029.5H1253M0 1029.5H1254M0 1030.5H1254" stroke="#41e8f4" stroke-width="1.35" opacity="0.28"/>
    <path d="M226 205.5H285M921 205.5H1010M212 206.5H291M916 206.5H1019M209 207.5H293M914 207.5H1022M208 208.5H294M913 208.5H1024M207 209.5H294M913 209.5H1025M207 210.5H294M912 210.5H1026M207 211.5H294M912 211.5H1026M208 212.5H294M912 212.5H1026M209 213.5H294M912 213.5H1026M210 214.5H295M912 214.5H1025M211 215.5H295M912 215.5H1025M212 216.5H295M912 216.5H1024M212 217.5H296M912 217.5H1024M213 218.5H296M911 218.5H1024M214 219.5H296M911 219.5H1023M214 220.5H296M910 220.5H1023M214 221.5H296M909 221.5H1022M214 222.5H296M907 222.5H1022M215 223.5H296M905 223.5H1021M215 224.5H296M904 224.5H1021M216 225.5H296M902 225.5H1020M216 226.5H297M901 226.5H1020M216 227.5H297M900 227.5H1019M217 228.5H297M900 228.5H1018M217 229.5H298M899 229.5H1018M218 230.5H298M898 230.5H1017M218 231.5H298M898 231.5H1017M218 232.5H299M897 232.5H1016M219 233.5H299M897 233.5H1016M219 234.5H299M896 234.5H1015M220 235.5H300M896 235.5H1014M220 236.5H300M895 236.5H1014M221 237.5H301M895 237.5H1013M221 238.5H301M894 238.5H1013M222 239.5H302M894 239.5H1012M222 240.5H302M893 240.5H1012M223 241.5H303M893 241.5H1011M223 242.5H303M892 242.5H1011M224 243.5H304M892 243.5H1010M224 244.5H305M891 244.5H1010M225 245.5H305M891 245.5H1009M225 246.5H306M890 246.5H1009M226 247.5H307M890 247.5H1008M227 248.5H308M889 248.5H1008M227 249.5H309M889 249.5H1007M228 250.5H310M888 250.5H1007M229 251.5H311M888 251.5H1006M230 252.5H312M887 252.5H1006M231 253.5H313M887 253.5H1005M232 254.5H314M886 254.5H1005M233 255.5H315M886 255.5H1004M234 256.5H316M885 256.5H1004M235 257.5H317M885 257.5H1003M236 258.5H318M884 258.5H1003M238 259.5H319M884 259.5H1002M239 260.5H320M883 260.5H1001M241 261.5H321M883 261.5H1001M243 262.5H322M882 262.5H1000M245 263.5H323M882 263.5H999M247 264.5H324M881 264.5H998M249 265.5H325M881 265.5H997M252 266.5H326M880 266.5H996M254 267.5H327M880 267.5H995M257 268.5H328M879 268.5H993M261 269.5H329M879 269.5H992M264 270.5H330M878 270.5H990M269 271.5H331M878 271.5H988M273 272.5H332M877 272.5H985M278 273.5H333M877 273.5H982M284 274.5H334M876 274.5H979M291 275.5H335M876 275.5H976M298 276.5H336M875 276.5H971M307 277.5H337M875 277.5H966M318 278.5H338M874 278.5H959M331 279.5H339M874 279.5H948M872 280.5H936M873 281.5H921M873 282.5H902M543 326.5H546M582 326.5H585M670 326.5H672M706 326.5H709M542 327.5H548M581 327.5H586M669 327.5H674M705 327.5H710M541 328.5H549M580 328.5H587M668 328.5H675M704 328.5H711M540 329.5H550M579 329.5H588M667 329.5H676M703 329.5H712M539 330.5H551M578 330.5H589M666 330.5H677M702 330.5H713M538 331.5H552M577 331.5H590M665 331.5H678M701 331.5H714M537 332.5H553M576 332.5H591M664 332.5H679M700 332.5H715M536 333.5H554M575 333.5H592M663 333.5H680M699 333.5H716M535 334.5H555M574 334.5H593M662 334.5H681M698 334.5H717M534 335.5H556M573 335.5H594M661 335.5H682M697 335.5H718M533 336.5H557M572 336.5H595M660 336.5H683M696 336.5H719M532 337.5H558M571 337.5H596M659 337.5H684M695 337.5H720M531 338.5H559M570 338.5H597M658 338.5H685M694 338.5H721M530 339.5H560M569 339.5H598M657 339.5H686M693 339.5H722M529 340.5H561M568 340.5H599M656 340.5H687M692 340.5H723M528 341.5H562M567 341.5H600M655 341.5H688M691 341.5H724M527 342.5H563M566 342.5H601M654 342.5H689M690 342.5H725M526 343.5H564M565 343.5H602M653 343.5H726M525 344.5H566M564 344.5H603M652 344.5H727M524 345.5H567M563 345.5H604M651 345.5H728M523 346.5H568M562 346.5H605M650 346.5H729M522 347.5H569M561 347.5H606M649 347.5H730M521 348.5H570M560 348.5H607M648 348.5H731M520 349.5H571M559 349.5H608M647 349.5H732M519 350.5H572M558 350.5H609M646 350.5H733M518 351.5H573M557 351.5H610M645 351.5H734M517 352.5H574M556 352.5H611M644 352.5H735M516 353.5H575M555 353.5H612M643 353.5H736M515 354.5H576M554 354.5H613M642 354.5H737M514 355.5H577M553 355.5H614M641 355.5H738M513 356.5H578M552 356.5H615M640 356.5H739M512 357.5H579M551 357.5H616M639 357.5H740M511 358.5H580M550 358.5H617M638 358.5H741M510 359.5H581M549 359.5H618M637 359.5H742M509 360.5H582M548 360.5H619M636 360.5H743M508 361.5H583M547 361.5H620M635 361.5H744M507 362.5H584M546 362.5H621M634 362.5H745M506 363.5H585M545 363.5H622M633 363.5H746M505 364.5H586M544 364.5H623M632 364.5H747M504 365.5H587M543 365.5H624M631 365.5H748M503 366.5H588M542 366.5H625M630 366.5H749M502 367.5H589M541 367.5H626M629 367.5H750M501 368.5H590M540 368.5H627M628 368.5H751M500 369.5H591M539 369.5H628M627 369.5H752M499 370.5H592M538 370.5H629M626 370.5H753M498 371.5H593M537 371.5H630M625 371.5H754M497 372.5H594M536 372.5H631M624 372.5H755M496 373.5H595M535 373.5H632M623 373.5H756M495 374.5H596M534 374.5H633M622 374.5H757M494 375.5H597M533 375.5H634M621 375.5H758M493 376.5H598M532 376.5H635M620 376.5H759M492 377.5H599M531 377.5H636M619 377.5H760M491 378.5H600M530 378.5H637M618 378.5H761M490 379.5H601M529 379.5H638M617 379.5H762M489 380.5H602M528 380.5H639M616 380.5H763M488 381.5H603M527 381.5H640M615 381.5H764M487 382.5H604M526 382.5H641M614 382.5H765M486 383.5H605M525 383.5H642M613 383.5H766M485 384.5H606M524 384.5H643M612 384.5H767M484 385.5H607M523 385.5H644M611 385.5H768M483 386.5H608M522 386.5H645M610 386.5H769M482 387.5H609M521 387.5H646M609 387.5H770M481 388.5H610M520 388.5H647M608 388.5H771M480 389.5H611M519 389.5H648M607 389.5H772M479 390.5H612M518 390.5H649M606 390.5H773M478 391.5H613M517 391.5H650M605 391.5H774M477 392.5H614M516 392.5H651M604 392.5H775M476 393.5H615M515 393.5H652M603 393.5H776M475 394.5H616M514 394.5H653M602 394.5H777M474 395.5H617M513 395.5H654M601 395.5H778M473 396.5H618M512 396.5H655M600 396.5H779M472 397.5H619M511 397.5H656M599 397.5H780M471 398.5H620M510 398.5H657M598 398.5H781M470 399.5H621M509 399.5H658M597 399.5H782M469 400.5H622M508 400.5H659M596 400.5H783M468 401.5H623M507 401.5H660M595 401.5H784M467 402.5H624M506 402.5H661M594 402.5H785M466 403.5H625M505 403.5H662M593 403.5H786M465 404.5H626M504 404.5H663M592 404.5H787M464 405.5H627M503 405.5H664M591 405.5H788M463 406.5H628M502 406.5H665M590 406.5H789M462 407.5H629M501 407.5H666M589 407.5H790M461 408.5H630M500 408.5H667M588 408.5H791M460 409.5H631M499 409.5H668M587 409.5H792M459 410.5H632M498 410.5H669M586 410.5H793M458 411.5H633M497 411.5H670M585 411.5H794M457 412.5H634M496 412.5H671M584 412.5H795M456 413.5H635M495 413.5H672M583 413.5H796M455 414.5H636M494 414.5H673M582 414.5H797M454 415.5H637M493 415.5H674M581 415.5H798M453 416.5H638M492 416.5H675M580 416.5H799M452 417.5H639M491 417.5H676M579 417.5H800M451 418.5H640M490 418.5H677M578 418.5H801M450 419.5H641M489 419.5H678M577 419.5H802M449 420.5H642M488 420.5H679M576 420.5H803M448 421.5H643M487 421.5H680M575 421.5H804M447 422.5H644M486 422.5H681M574 422.5H805M446 423.5H645M485 423.5H682M573 423.5H806M445 424.5H646M484 424.5H683M572 424.5H807M444 425.5H647M483 425.5H684M571 425.5H808M443 426.5H648M482 426.5H685M570 426.5H809M442 427.5H649M481 427.5H686M569 427.5H810M441 428.5H650M480 428.5H687M568 428.5H811M440 429.5H651M479 429.5H688M567 429.5H812M439 430.5H652M478 430.5H689M566 430.5H813M438 431.5H653M477 431.5H690M565 431.5H814M437 432.5H654M476 432.5H691M564 432.5H815M436 433.5H655M475 433.5H692M563 433.5H816M435 434.5H656M474 434.5H693M562 434.5H817M434 435.5H657M473 435.5H694M561 435.5H818M433 436.5H658M472 436.5H695M560 436.5H819M432 437.5H659M471 437.5H696M559 437.5H820M431 438.5H660M470 438.5H697M558 438.5H821M430 439.5H661M469 439.5H698M557 439.5H822M429 440.5H662M468 440.5H699M556 440.5H823M428 441.5H663M467 441.5H700M555 441.5H824M427 442.5H664M466 442.5H701M554 442.5H825M426 443.5H665M465 443.5H702M553 443.5H826M425 444.5H666M464 444.5H703M552 444.5H827M424 445.5H667M463 445.5H704M551 445.5H828M423 446.5H668M462 446.5H705M550 446.5H829M422 447.5H669M461 447.5H706M549 447.5H830M421 448.5H670M460 448.5H707M548 448.5H831M420 449.5H671M459 449.5H708M547 449.5H832M419 450.5H672M458 450.5H709M546 450.5H833M418 451.5H673M457 451.5H710M545 451.5H834M417 452.5H674M456 452.5H711M544 452.5H835M416 453.5H675M455 453.5H712M543 453.5H836M415 454.5H676M454 454.5H713M542 454.5H837M414 455.5H677M453 455.5H714M541 455.5H838M413 456.5H678M452 456.5H715M540 456.5H839M412 457.5H679M451 457.5H716M539 457.5H840M411 458.5H680M450 458.5H717M538 458.5H841M410 459.5H681M449 459.5H718M537 459.5H842M409 460.5H682M448 460.5H719M536 460.5H843M408 461.5H683M447 461.5H720M535 461.5H844M407 462.5H684M446 462.5H721M534 462.5H845M406 463.5H685M445 463.5H722M533 463.5H846M405 464.5H686M444 464.5H723M532 464.5H847M404 465.5H687M443 465.5H724M531 465.5H848M403 466.5H688M442 466.5H725M530 466.5H849M402 467.5H689M441 467.5H726M529 467.5H850M401 468.5H690M440 468.5H727M528 468.5H851M400 469.5H691M439 469.5H728M527 469.5H852M399 470.5H692M438 470.5H729M526 470.5H853M398 471.5H693M437 471.5H730M525 471.5H854M397 472.5H694M436 472.5H731M524 472.5H855M396 473.5H695M435 473.5H732M523 473.5H856M395 474.5H696M434 474.5H733M522 474.5H857M394 475.5H697M433 475.5H734M521 475.5H858M393 476.5H698M432 476.5H735M520 476.5H859M392 477.5H699M431 477.5H736M519 477.5H860M391 478.5H700M430 478.5H737M518 478.5H861M390 479.5H701M429 479.5H738M517 479.5H862M389 480.5H702M428 480.5H739M516 480.5H863M388 481.5H703M427 481.5H740M515 481.5H864M387 482.5H704M426 482.5H741M514 482.5H865M386 483.5H705M425 483.5H742M513 483.5H866M385 484.5H706M424 484.5H743M512 484.5H867M384 485.5H707M423 485.5H744M511 485.5H868M383 486.5H708M422 486.5H745M510 486.5H869M382 487.5H709M421 487.5H746M509 487.5H870M381 488.5H710M420 488.5H747M508 488.5H871M380 489.5H711M419 489.5H748M507 489.5H872M379 490.5H712M418 490.5H749M506 490.5H873M378 491.5H713M417 491.5H750M505 491.5H874M377 492.5H714M416 492.5H751M504 492.5H875M376 493.5H715M415 493.5H752M503 493.5H876M375 494.5H716M414 494.5H753M502 494.5H877M374 495.5H717M413 495.5H754M501 495.5H878M373 496.5H718M412 496.5H755M500 496.5H879M372 497.5H719M411 497.5H756M499 497.5H880M371 498.5H720M410 498.5H757M498 498.5H881M370 499.5H721M409 499.5H758M497 499.5H882M369 500.5H722M408 500.5H759M496 500.5H883M368 501.5H723M407 501.5H760M495 501.5H884M367 502.5H724M406 502.5H761M494 502.5H885M366 503.5H725M405 503.5H762M493 503.5H886M365 504.5H726M404 504.5H763M492 504.5H887M364 505.5H727M403 505.5H764M491 505.5H888M363 506.5H728M402 506.5H765M490 506.5H889M362 507.5H729M401 507.5H766M489 507.5H890M361 508.5H730M400 508.5H767M488 508.5H891M360 509.5H731M399 509.5H768M487 509.5H892M359 510.5H732M398 510.5H769M486 510.5H893M358 511.5H733M397 511.5H770M485 511.5H894M357 512.5H734M396 512.5H771M484 512.5H895M356 513.5H735M395 513.5H772M483 513.5H896M355 514.5H736M394 514.5H773M482 514.5H897M354 515.5H737M393 515.5H774M481 515.5H898M353 516.5H738M392 516.5H775M480 516.5H899M352 517.5H739M391 517.5H776M479 517.5H900M351 518.5H740M390 518.5H777M478 518.5H901M350 519.5H741M389 519.5H778M477 519.5H902M349 520.5H742M388 520.5H779M476 520.5H903M348 521.5H743M387 521.5H780M475 521.5H904M347 522.5H744M386 522.5H781M474 522.5H905M346 523.5H745M385 523.5H782M473 523.5H906M345 524.5H746M384 524.5H783M472 524.5H907M344 525.5H747M383 525.5H784M471 525.5H908M343 526.5H748M382 526.5H785M470 526.5H909M342 527.5H749M381 527.5H786M469 527.5H910M341 528.5H750M380 528.5H787M468 528.5H911M340 529.5H751M379 529.5H788M467 529.5H912M339 530.5H752M378 530.5H789M466 530.5H913M338 531.5H753M377 531.5H790M465 531.5H914M337 532.5H754M376 532.5H791M464 532.5H915M336 533.5H755M375 533.5H792M463 533.5H916M335 534.5H756M374 534.5H793M462 534.5H917M334 535.5H757M373 535.5H794M461 535.5H918M333 536.5H758M372 536.5H795M460 536.5H919M332 537.5H759M371 537.5H796M459 537.5H920M331 538.5H760M370 538.5H797M458 538.5H921M330 539.5H761M369 539.5H798M457 539.5H922M329 540.5H762M368 540.5H799M456 540.5H923M328 541.5H763M367 541.5H800M455 541.5H924M327 542.5H764M366 542.5H801M454 542.5H925M326 543.5H765M365 543.5H802M453 543.5H926M325 544.5H766M364 544.5H803M452 544.5H927M324 545.5H767M363 545.5H804M451 545.5H928M323 546.5H768M362 546.5H805M450 546.5H929M322 547.5H769M361 547.5H806M449 547.5H930M321 548.5H770M360 548.5H807M448 548.5H931M320 549.5H771M359 549.5H808M447 549.5H932M319 550.5H772M358 550.5H809M446 550.5H933M318 551.5H773M357 551.5H810M445 551.5H934M317 552.5H774M356 552.5H811M444 552.5H935M316 553.5H775M355 553.5H812M443 553.5H936M315 554.5H776M354 554.5H813M442 554.5H937M314 555.5H777M353 555.5H814M441 555.5H938M313 556.5H778M352 556.5H815M440 556.5H939M312 557.5H779M351 557.5H816M439 557.5H940M311 558.5H780M350 558.5H817M438 558.5H941M310 559.5H781M349 559.5H818M437 559.5H942M309 560.5H782M348 560.5H819M436 560.5H943M308 561.5H783M347 561.5H820M435 561.5H944M307 562.5H784M346 562.5H821M434 562.5H945M306 563.5H785M345 563.5H822M433 563.5H946M305 564.5H786M344 564.5H823M432 564.5H947M304 565.5H787M343 565.5H824M431 565.5H948M303 566.5H788M342 566.5H825M430 566.5H949M302 567.5H789M341 567.5H826M429 567.5H950M301 568.5H790M340 568.5H827M428 568.5H951M300 569.5H791M339 569.5H828M427 569.5H952M299 570.5H792M338 570.5H829M426 570.5H953M298 571.5H793M337 571.5H830M425 571.5H954M297 572.5H794M336 572.5H831M424 572.5H955M296 573.5H795M335 573.5H832M423 573.5H956M295 574.5H796M334 574.5H833M422 574.5H957M294 575.5H797M333 575.5H834M421 575.5H958M293 576.5H798M332 576.5H835M420 576.5H959M292 577.5H799M331 577.5H836M419 577.5H960M291 578.5H800M330 578.5H837M418 578.5H961M290 579.5H801M329 579.5H838M417 579.5H962M289 580.5H802M328 580.5H839M416 580.5H963M288 581.5H803M327 581.5H840M415 581.5H964M287 582.5H804M326 582.5H841M414 582.5H965M286 583.5H805M325 583.5H842M413 583.5H966M285 584.5H806M324 584.5H843M412 584.5H967M284 585.5H807M323 585.5H844M411 585.5H968M283 586.5H808M322 586.5H845M410 586.5H969M282 587.5H809M321 587.5H846M409 587.5H970M281 588.5H810M320 588.5H847M408 588.5H971M280 589.5H811M319 589.5H848M407 589.5H972M279 590.5H812M318 590.5H849M406 590.5H973M278 591.5H813M317 591.5H850M405 591.5H974M277 592.5H814M316 592.5H851M404 592.5H975M276 593.5H815M315 593.5H852M403 593.5H976M275 594.5H816M314 594.5H853M402 594.5H977M274 595.5H817M313 595.5H854M401 595.5H978M273 596.5H818M312 596.5H855M400 596.5H979M272 597.5H819M311 597.5H856M399 597.5H980M271 598.5H820M310 598.5H857M398 598.5H981M270 599.5H821M309 599.5H858M397 599.5H982M269 600.5H822M308 600.5H859M396 600.5H983M268 601.5H823M307 601.5H860M395 601.5H984M267 602.5H824M306 602.5H861M394 602.5H985M266 603.5H825M305 603.5H862M393 603.5H986M265 604.5H826M304 604.5H863M392 604.5H987M264 605.5H827M303 605.5H864M391 605.5H988M263 606.5H828M302 606.5H865M390 606.5H989M262 607.5H829M301 607.5H866M389 607.5H990M261 608.5H830M300 608.5H867M388 608.5H991M260 609.5H831M299 609.5H868M387 609.5H992M259 610.5H832M298 610.5H869M386 610.5H993M258 611.5H833M297 611.5H870M385 611.5H994M257 612.5H834M296 612.5H871M384 612.5H995M256 613.5H835M295 613.5H872M383 613.5H996M255 614.5H836M294 614.5H873M382 614.5H997M254 615.5H837M293 615.5H874M381 615.5H998M253 616.5H838M292 616.5H875M380 616.5H999M252 617.5H839M291 617.5H876M379 617.5H1000M251 618.5H840M290 618.5H877M378 618.5H1001M250 619.5H841M289 619.5H878M377 619.5H1002M249 620.5H842M288 620.5H879M376 620.5H1003M248 621.5H843M287 621.5H880M375 621.5H1004M247 622.5H844M286 622.5H881M374 622.5H1005M246 623.5H845M285 623.5H882M373 623.5H1006M245 624.5H846M284 624.5H883M372 624.5H1007M244 625.5H847M283 625.5H884M371 625.5H1008M243 626.5H848M282 626.5H885M370 626.5H1009M242 627.5H849M281 627.5H886M369 627.5H1010M241 628.5H850M280 628.5H887M368 628.5H1011M240 629.5H851M279 629.5H888M367 629.5H1012M239 630.5H852M278 630.5H889M366 630.5H1013M238 631.5H853M277 631.5H890M365 631.5H1014M237 632.5H854M276 632.5H891M364 632.5H1015M236 633.5H855M275 633.5H892M363 633.5H1016M235 634.5H856M274 634.5H893M362 634.5H1017M234 635.5H857M273 635.5H894M361 635.5H1018M233 636.5H858M272 636.5H895M360 636.5H1019M232 637.5H859M271 637.5H896M359 637.5H1020M231 638.5H860M270 638.5H897M358 638.5H1021M230 639.5H861M269 639.5H898M357 639.5H1022M229 640.5H862M268 640.5H899M356 640.5H1023M228 641.5H863M267 641.5H900M355 641.5H1024M227 642.5H864M266 642.5H901M354 642.5H1025M226 643.5H865M265 643.5H902M353 643.5H1026M225 644.5H866M264 644.5H903M352 644.5H1027M224 645.5H867M263 645.5H904M351 645.5H1028M223 646.5H868M262 646.5H905M350 646.5H1029M222 647.5H869M261 647.5H906M349 647.5H1030M221 648.5H870M260 648.5H907M348 648.5H1031M220 649.5H871M259 649.5H908M347 649.5H1032M219 650.5H872M258 650.5H909M346 650.5H1033M218 651.5H873M257 651.5H910M345 651.5H1034M217 652.5H874M256 652.5H911M344 652.5H1035M216 653.5H875M255 653.5H912M343 653.5H1036M215 654.5H876M254 654.5H913M342 654.5H1037M214 655.5H877M253 655.5H914M341 655.5H1038M213 656.5H878M252 656.5H915M340 656.5H1039M212 657.5H879M251 657.5H916M339 657.5H1040M211 658.5H880M250 658.5H917M338 658.5H1041M210 659.5H881M249 659.5H918M337 659.5H1042M209 660.5H882M248 660.5H919M336 660.5H1043M208 661.5H883M247 661.5H920M335 661.5H1044M207 662.5H884M246 662.5H921M334 662.5H1045M206 663.5H885M245 663.5H922M333 663.5H1046M205 664.5H886M244 664.5H923M332 664.5H1047M204 665.5H887M243 665.5H924M331 665.5H1048M203 666.5H888M242 666.5H925M330 666.5H1049M202 667.5H889M241 667.5H926M329 667.5H1050M201 668.5H890M240 668.5H927M328 668.5H1051M200 669.5H891M239 669.5H928M327 669.5H1052M199 670.5H892M238 670.5H929M326 670.5H1053M198 671.5H893M237 671.5H930M325 671.5H1054M197 672.5H894M236 672.5H931M324 672.5H1055M196 673.5H895M235 673.5H932M323 673.5H1056M195 674.5H896M234 674.5H933M322 674.5H1057M194 675.5H897M233 675.5H934M321 675.5H1058M193 676.5H898M232 676.5H935M320 676.5H1059M192 677.5H899M231 677.5H936M319 677.5H1060M191 678.5H900M230 678.5H937M318 678.5H1061M190 679.5H901M229 679.5H938M317 679.5H1062M189 680.5H902M228 680.5H939M316 680.5H1063M188 681.5H903M227 681.5H940M315 681.5H1064M187 682.5H904M226 682.5H941M314 682.5H1065M186 683.5H905M225 683.5H942M313 683.5H1066M185 684.5H906M224 684.5H943M312 684.5H1067M184 685.5H907M223 685.5H944M311 685.5H1068M183 686.5H908M222 686.5H945M310 686.5H1069M182 687.5H909M221 687.5H946M309 687.5H1070M181 688.5H910M220 688.5H947M308 688.5H1071M180 689.5H911M219 689.5H948M307 689.5H1072M179 690.5H912M218 690.5H949M306 690.5H1073M178 691.5H913M217 691.5H950M305 691.5H1074M177 692.5H914M216 692.5H951M304 692.5H1075M176 693.5H915M215 693.5H952M303 693.5H1076M175 694.5H916M214 694.5H953M302 694.5H1077M174 695.5H917M213 695.5H954M301 695.5H1078M173 696.5H918M212 696.5H955M300 696.5H1079M172 697.5H919M211 697.5H956M299 697.5H1080M171 698.5H920M210 698.5H957M298 698.5H1081M170 699.5H921M209 699.5H958M297 699.5H1082M169 700.5H922M208 700.5H959M296 700.5H1083M168 701.5H923M207 701.5H960M295 701.5H1084M167 702.5H924M206 702.5H961M294 702.5H1085M166 703.5H925M205 703.5H962M293 703.5H1086M165 704.5H926M204 704.5H963M292 704.5H1087M164 705.5H927M203 705.5H964M291 705.5H1088M163 706.5H928M202 706.5H965M290 706.5H1089M162 707.5H929M201 707.5H966M289 707.5H1090M161 708.5H930M200 708.5H967M288 708.5H1091M160 709.5H931M199 709.5H968M287 709.5H1092M159 710.5H932M198 710.5H969M286 710.5H1093M158 711.5H933M197 711.5H970M285 711.5H1094M157 712.5H934M196 712.5H971M284 712.5H1095M156 713.5H935M195 713.5H972M283 713.5H1096M155 714.5H936M194 714.5H973M282 714.5H1097M154 715.5H937M193 715.5H974M281 715.5H1098M153 716.5H938M192 716.5H975M280 716.5H1099M152 717.5H939M191 717.5H976M279 717.5H1100M151 718.5H940M190 718.5H977M278 718.5H1101M150 719.5H941M189 719.5H978M277 719.5H1102M149 720.5H942M188 720.5H979M276 720.5H1103M148 721.5H943M187 721.5H980M275 721.5H1104M147 722.5H944M186 722.5H981M274 722.5H1105M146 723.5H945M185 723.5H982M273 723.5H1106M145 724.5H946M184 724.5H983M272 724.5H1107M144 725.5H947M183 725.5H984M271 725.5H1108M143 726.5H948M182 726.5H985M270 726.5H1109M142 727.5H949M181 727.5H986M269 727.5H1110M141 728.5H950M180 728.5H987M268 728.5H1111M140 729.5H951M179 729.5H988M267 729.5H1112M139 730.5H952M178 730.5H989M266 730.5H1113M138 731.5H953M177 731.5H990M265 731.5H1114M137 732.5H954M176 732.5H991M264 732.5H1115M136 733.5H955M175 733.5H992M263 733.5H1116M135 734.5H956M174 734.5H993M262 734.5H1117M134 735.5H957M173 735.5H994M261 735.5H1118M133 736.5H958M172 736.5H995M260 736.5H1119M132 737.5H959M171 737.5H996M259 737.5H1120M131 738.5H960M170 738.5H997M258 738.5H1121M130 739.5H961M169 739.5H998M257 739.5H1122M129 740.5H962M168 740.5H999M256 740.5H1123M128 741.5H963M167 741.5H1000M255 741.5H1124M127 742.5H964M166 742.5H1001M254 742.5H1125M126 743.5H965M165 743.5H1002M253 743.5H1126M125 744.5H966M164 744.5H1003M252 744.5H1127M124 745.5H967M163 745.5H1004M251 745.5H1128M123 746.5H968M162 746.5H1005M250 746.5H1129M122 747.5H969M161 747.5H1006M249 747.5H1130M121 748.5H970M160 748.5H1007M248 748.5H1131M120 749.5H971M159 749.5H1008M247 749.5H1132M119 750.5H972M158 750.5H1009M246 750.5H1133M118 751.5H973M157 751.5H1010M245 751.5H1134M117 752.5H974M156 752.5H1011M244 752.5H1135M116 753.5H975M155 753.5H1012M243 753.5H1136M115 754.5H976M154 754.5H1013M242 754.5H1137M114 755.5H977M153 755.5H1014M241 755.5H1138M113 756.5H978M152 756.5H1015M240 756.5H1139M112 757.5H979M151 757.5H1016M239 757.5H1140M111 758.5H980M150 758.5H1017M238 758.5H1141M110 759.5H981M149 759.5H1018M237 759.5H1142M109 760.5H982M148 760.5H1019M236 760.5H1143M108 761.5H983M147 761.5H1020M235 761.5H1144M107 762.5H984M146 762.5H1021M234 762.5H1145M106 763.5H985M145 763.5H1022M233 763.5H1146M105 764.5H986M144 764.5H1023M232 764.5H1147M104 765.5H987M143 765.5H1024M231 765.5H1148M103 766.5H988M142 766.5H1025M230 766.5H1149M102 767.5H989M141 767.5H1026M229 767.5H1150M101 768.5H990M140 768.5H1027M228 768.5H1151M100 769.5H991M139 769.5H1028M227 769.5H1152M99 770.5H992M138 770.5H1029M226 770.5H1153M98 771.5H993M137 771.5H1030M225 771.5H1154M97 772.5H994M136 772.5H1031M224 772.5H1155M96 773.5H995M135 773.5H1032M223 773.5H1156M95 774.5H996M134 774.5H1033M222 774.5H1157M94 775.5H997M133 775.5H1034M221 775.5H1158M93 776.5H998M132 776.5H1035M220 776.5H1159M92 777.5H999M131 777.5H1036M219 777.5H1160M91 778.5H1000M130 778.5H1037M218 778.5H1161M90 779.5H1001M129 779.5H1038M217 779.5H1162M89 780.5H1002M128 780.5H1039M216 780.5H1163M88 781.5H1003M127 781.5H1040M215 781.5H1164M87 782.5H1004M126 782.5H1041M214 782.5H1165M86 783.5H1005M125 783.5H1042M213 783.5H1166M85 784.5H1006M124 784.5H1043M212 784.5H1167M84 785.5H1007M123 785.5H1044M211 785.5H1168M83 786.5H1008M122 786.5H1045M210 786.5H1169M82 787.5H1009M121 787.5H1046M209 787.5H1170M81 788.5H1010M120 788.5H1047M208 788.5H1171M80 789.5H1011M119 789.5H1048M207 789.5H1172M79 790.5H1012M118 790.5H1049M206 790.5H1173M78 791.5H1013M117 791.5H1050M205 791.5H1174M77 792.5H1014M116 792.5H1051M204 792.5H1175M76 793.5H1015M115 793.5H1052M203 793.5H1176M75 794.5H1016M114 794.5H1053M202 794.5H1177M74 795.5H1017M113 795.5H1054M201 795.5H1178M73 796.5H1018M112 796.5H1055M200 796.5H1179M72 797.5H1019M111 797.5H1056M199 797.5H1180M71 798.5H1020M110 798.5H1057M198 798.5H1181M70 799.5H1021M109 799.5H1058M197 799.5H1182M69 800.5H1022M108 800.5H1059M196 800.5H1183M68 801.5H1023M107 801.5H1060M195 801.5H1184M67 802.5H1024M106 802.5H1061M194 802.5H1185M66 803.5H1025M105 803.5H1062M193 803.5H1186M65 804.5H1026M104 804.5H1063M192 804.5H1187M64 805.5H1027M103 805.5H1064M191 805.5H1188M63 806.5H1028M102 806.5H1065M190 806.5H1189M62 807.5H1029M101 807.5H1066M189 807.5H1190M61 808.5H1030M100 808.5H1067M188 808.5H1191M60 809.5H1031M99 809.5H1068M187 809.5H1192M59 810.5H1032M98 810.5H1069M186 810.5H1193M58 811.5H1033M97 811.5H1070M185 811.5H1194M57 812.5H1034M96 812.5H1071M184 812.5H1195M56 813.5H1035M95 813.5H1072M183 813.5H1196M55 814.5H1036M94 814.5H1073M182 814.5H1197M54 815.5H1037M93 815.5H1074M181 815.5H1198M53 816.5H1038M92 816.5H1075M180 816.5H1199M52 817.5H1039M91 817.5H1076M179 817.5H1200M51 818.5H1040M90 818.5H1077M178 818.5H1201M50 819.5H1041M89 819.5H1078M177 819.5H1202M49 820.5H1042M88 820.5H1079M176 820.5H1203M48 821.5H1043M87 821.5H1080M175 821.5H1204M47 822.5H1044M86 822.5H1081M174 822.5H1205M46 823.5H1045M85 823.5H1082M173 823.5H1206M45 824.5H1046M84 824.5H1083M172 824.5H1207M44 825.5H1047M83 825.5H1084M171 825.5H1208M43 826.5H1048M82 826.5H1085M170 826.5H1209M42 827.5H1049M81 827.5H1086M169 827.5H1210M41 828.5H1050M80 828.5H1087M168 828.5H1211M40 829.5H1051M79 829.5H1088M167 829.5H1212M39 830.5H1052M78 830.5H1089M166 830.5H1213M38 831.5H1053M77 831.5H1090M165 831.5H1214M37 832.5H1054M76 832.5H1091M164 832.5H1215M36 833.5H1055M75 833.5H1092M163 833.5H1216M35 834.5H1056M74 834.5H1093M162 834.5H1217M34 835.5H1057M73 835.5H1094M161 835.5H1218M33 836.5H1058M72 836.5H1095M160 836.5H1219M32 837.5H1059M71 837.5H1096M159 837.5H1220M31 838.5H1060M70 838.5H1097M158 838.5H1221M30 839.5H1061M69 839.5H1098M157 839.5H1222M29 840.5H1062M68 840.5H1099M156 840.5H1223M28 841.5H1063M67 841.5H1100M155 841.5H1224M27 842.5H1064M66 842.5H1101M154 842.5H1225M26 843.5H1065M65 843.5H1102M153 843.5H1226M25 844.5H1066M64 844.5H1103M152 844.5H1227M24 845.5H1067M63 845.5H1104M151 845.5H1228M23 846.5H1068M62 846.5H1105M150 846.5H1229M22 847.5H1069M61 847.5H1106M149 847.5H1230M21 848.5H1070M60 848.5H1107M148 848.5H1231M20 849.5H1071M59 849.5H1108M147 849.5H1232M19 850.5H1072M58 850.5H1109M146 850.5H1233M18 851.5H1073M57 851.5H1110M145 851.5H1234M17 852.5H1074M56 852.5H1111M144 852.5H1235M16 853.5H1075M55 853.5H1112M143 853.5H1236M15 854.5H1076M54 854.5H1113M142 854.5H1237M14 855.5H1077M53 855.5H1114M141 855.5H1238M13 856.5H1078M52 856.5H1115M140 856.5H1239M12 857.5H1079M51 857.5H1116M139 857.5H1240M11 858.5H1080M50 858.5H1117M138 858.5H1241M10 859.5H1081M49 859.5H1118M137 859.5H1242M9 860.5H1082M48 860.5H1119M136 860.5H1243M8 861.5H1083M47 861.5H1120M135 861.5H1244M7 862.5H1084M46 862.5H1121M134 862.5H1245M6 863.5H1085M45 863.5H1122M133 863.5H1246M5 864.5H1086M44 864.5H1123M132 864.5H1247M4 865.5H1087M43 865.5H1124M131 865.5H1248M3 866.5H1088M42 866.5H1125M130 866.5H1249M2 867.5H1089M41 867.5H1126M129 867.5H1250M1 868.5H1090M40 868.5H1127M128 868.5H1251M0 869.5H1091M39 869.5H1128M127 869.5H1252M0 870.5H1092M38 870.5H1129M126 870.5H1253M0 871.5H1093M37 871.5H1130M125 871.5H1254M0 872.5H1094M36 872.5H1131M124 872.5H1254M0 873.5H1095M35 873.5H1132M123 873.5H1254M0 874.5H1096M34 874.5H1133M122 874.5H1254M0 875.5H1097M33 875.5H1134M121 875.5H1254M0 876.5H1098M32 876.5H1135M120 876.5H1254M0 877.5H1099M31 877.5H1136M119 877.5H1254M0 878.5H1100M30 878.5H1137M118 878.5H1254M0 879.5H1101M29 879.5H1138M117 879.5H1254M0 880.5H1102M28 880.5H1139M116 880.5H1254M0 881.5H1103M27 881.5H1140M115 881.5H1254M0 882.5H1104M26 882.5H1141M114 882.5H1254M0 883.5H1105M25 883.5H1142M113 883.5H1254M0 884.5H1106M24 884.5H1143M112 884.5H1254M0 885.5H1107M23 885.5H1144M111 885.5H1254M0 886.5H1108M22 886.5H1145M110 886.5H1254M0 887.5H1109M21 887.5H1146M109 887.5H1254M0 888.5H1110M20 888.5H1147M108 888.5H1254M0 889.5H1111M19 889.5H1148M107 889.5H1254M0 890.5H1112M18 890.5H1149M106 890.5H1254M0 891.5H1113M17 891.5H1150M105 891.5H1254M0 892.5H1114M16 892.5H1151M104 892.5H1254M0 893.5H1115M15 893.5H1152M103 893.5H1254M0 894.5H1116M14 894.5H1153M102 894.5H1254M0 895.5H1117M13 895.5H1154M101 895.5H1254M0 896.5H1118M12 896.5H1155M100 896.5H1254M0 897.5H1119M11 897.5H1156M99 897.5H1254M0 898.5H1120M10 898.5H1157M98 898.5H1254M0 899.5H1121M9 899.5H1158M97 899.5H1254M0 900.5H1122M8 900.5H1159M96 900.5H1254M0 901.5H1123M7 901.5H1160M95 901.5H1254M0 902.5H1124M6 902.5H1161M94 902.5H1254M0 903.5H1125M5 903.5H1162M93 903.5H1254M0 904.5H1126M4 904.5H1163M92 904.5H1254M0 905.5H1127M3 905.5H1164M91 905.5H1254M0 906.5H1128M2 906.5H1165M90 906.5H1254M0 907.5H1129M1 907.5H1166M89 907.5H1254M0 908.5H1130M0 908.5H1167M88 908.5H1254M0 909.5H1131M0 909.5H1168M87 909.5H1254M0 910.5H1132M0 910.5H1169M86 910.5H1254M0 911.5H1133M0 911.5H1170M85 911.5H1254M0 912.5H1134M0 912.5H1171M84 912.5H1254M0 913.5H1135M0 913.5H1172M83 913.5H1254M0 914.5H1136M0 914.5H1173M82 914.5H1254M0 915.5H1137M0 915.5H1174M81 915.5H1254M0 916.5H1138M0 916.5H1175M80 916.5H1254M0 917.5H1139M0 917.5H1176M79 917.5H1254M0 918.5H1140M0 918.5H1177M78 918.5H1254M0 919.5H1141M0 919.5H1178M77 919.5H1254M0 920.5H1142M0 920.5H1179M76 920.5H1254M0 921.5H1143M0 921.5H1180M75 921.5H1254M0 922.5H1144M0 922.5H1181M74 922.5H1254M0 923.5H1145M0 923.5H1182M73 923.5H1254M0 924.5H1146M0 924.5H1183M72 924.5H1254M0 925.5H1147M0 925.5H1184M71 925.5H1254M0 926.5H1148M0 926.5H1185M70 926.5H1254M0 927.5H1149M0 927.5H1186M69 927.5H1254M0 928.5H1150M0 928.5H1187M68 928.5H1254M0 929.5H1151M0 929.5H1188M67 929.5H1254M0 930.5H1152M0 930.5H1189M66 930.5H1254M0 931.5H1153M0 931.5H1190M65 931.5H1254M0 932.5H1154M0 932.5H1191M64 932.5H1254M0 933.5H1155M0 933.5H1192M63 933.5H1254M0 934.5H1156M0 934.5H1193M62 934.5H1254M0 935.5H1157M0 935.5H1194M61 935.5H1254M0 936.5H1158M0 936.5H1195M60 936.5H1254M0 937.5H1159M0 937.5H1196M59 937.5H1254M0 938.5H1160M0 938.5H1197M58 938.5H1254M0 939.5H1161M0 939.5H1198M57 939.5H1254M0 940.5H1162M0 940.5H1199M56 940.5H1254M0 941.5H1163M0 941.5H1200M55 941.5H1254M0 942.5H1164M0 942.5H1201M54 942.5H1254M0 943.5H1165M0 943.5H1202M53 943.5H1254M0 944.5H1166M0 944.5H1203M52 944.5H1254M0 945.5H1167M0 945.5H1204M51 945.5H1254M0 946.5H1168M0 946.5H1205M50 946.5H1254M0 947.5H1169M0 947.5H1206M49 947.5H1254M0 948.5H1170M0 948.5H1207M48 948.5H1254M0 949.5H1171M0 949.5H1208M47 949.5H1254M0 950.5H1172M0 950.5H1209M46 950.5H1254M0 951.5H1173M0 951.5H1210M45 951.5H1254M0 952.5H1174M0 952.5H1211M44 952.5H1254M0 953.5H1175M0 953.5H1212M43 953.5H1254M0 954.5H1176M0 954.5H1213M42 954.5H1254M0 955.5H1177M0 955.5H1214M41 955.5H1254M0 956.5H1178M0 956.5H1215M40 956.5H1254M0 957.5H1179M0 957.5H1216M39 957.5H1254M0 958.5H1180M0 958.5H1217M38 958.5H1254M0 959.5H1181M0 959.5H1218M37 959.5H1254M0 960.5H1182M0 960.5H1219M36 960.5H1254M0 961.5H1183M0 961.5H1220M35 961.5H1254M0 962.5H1184M0 962.5H1221M34 962.5H1254M0 963.5H1185M0 963.5H1222M33 963.5H1254M0 964.5H1186M0 964.5H1223M32 964.5H1254M0 965.5H1187M0 965.5H1224M31 965.5H1254M0 966.5H1188M0 966.5H1225M30 966.5H1254M0 967.5H1189M0 967.5H1226M29 967.5H1254M0 968.5H1190M0 968.5H1227M28 968.5H1254M0 969.5H1191M0 969.5H1228M27 969.5H1254M0 970.5H1192M0 970.5H1229M26 970.5H1254M0 971.5H1193M0 971.5H1230M25 971.5H1254M0 972.5H1194M0 972.5H1231M24 972.5H1254M0 973.5H1195M0 973.5H1232M23 973.5H1254M0 974.5H1196M0 974.5H1233M22 974.5H1254M0 975.5H1197M0 975.5H1234M21 975.5H1254M0 976.5H1198M0 976.5H1235M20 976.5H1254M0 977.5H1199M0 977.5H1236M19 977.5H1254M0 978.5H1200M0 978.5H1237M18 978.5H1254M0 979.5H1201M0 979.5H1238M17 979.5H1254M0 980.5H1202M0 980.5H1239M16 980.5H1254M0 981.5H1203M0 981.5H1240M15 981.5H1254M0 982.5H1204M0 982.5H1241M14 982.5H1254M0 983.5H1205M0 983.5H1242M13 983.5H1254M0 984.5H1206M0 984.5H1243M12 984.5H1254M0 985.5H1207M0 985.5H1244M11 985.5H1254M0 986.5H1208M0 986.5H1245M10 986.5H1254M0 987.5H1209M0 987.5H1246M9 987.5H1254M0 988.5H1210M0 988.5H1247M8 988.5H1254M0 989.5H1211M0 989.5H1248M7 989.5H1254M0 990.5H1212M0 990.5H1249M6 990.5H1254M0 991.5H1213M0 991.5H1250M5 991.5H1254M0 992.5H1214M0 992.5H1251M4 992.5H1254M0 993.5H1215M0 993.5H1252M3 993.5H1254M0 994.5H1216M0 994.5H1253M2 994.5H1254M0 995.5H1217M0 995.5H1254M1 995.5H1254M0 996.5H1218M0 996.5H1254M0 997.5H1219M0 997.5H1254M0 998.5H1220M0 998.5H1254M0 999.5H1221M0 999.5H1254M0 1000.5H1222M0 1000.5H1254M0 1001.5H1223M0 1001.5H1254M0 1002.5H1224M0 1002.5H1254M0 1003.5H1225M0 1003.5H1254M0 1004.5H1226M0 1004.5H1254M0 1005.5H1227M0 1005.5H1254M0 1006.5H1228M0 1006.5H1254M0 1007.5H1229M0 1007.5H1254M0 1008.5H1230M0 1008.5H1254M0 1009.5H1231M0 1009.5H1254M0 1010.5H1232M0 1010.5H1254M0 1011.5H1233M0 1011.5H1254M0 1012.5H1234M0 1012.5H1254M0 1013.5H1235M0 1013.5H1254M0 1014.5H1236M0 1014.5H1254M0 1015.5H1237M0 1015.5H1254M0 1016.5H1238M0 1016.5H1254M0 1017.5H1239M0 1017.5H1254M0 1018.5H1240M0 1018.5H1254M0 1019.5H1241M0 1019.5H1254M0 1020.5H1242M0 1020.5H1254M0 1021.5H1243M0 1021.5H1254M0 1022.5H1244M0 1022.5H1254M0 1023.5H1245M0 1023.5H1254M0 1024.5H1246M0 1024.5H1254M0 1025.5H1247M0 1025.5H1254M0 1026.5H1248M0 1026.5H1254M0 1027.5H1249M0 1027.5H1254M0 1028.5H1250M0 1028.5H1254M0 1029.5H1251M0 1029.5H1254" stroke="#63f7ff" stroke-width="1.15" opacity="0.92"/>
  </g>
</svg>
