<svg xmlns="http://www.w3.org/2000/svg" width="480" height="480" viewBox="0 0 480 480" role="img" aria-label="KoalaByte Blue eucalyptus menu background">
  <defs>
    <radialGradient id="bg" cx="50%" cy="40%" r="70%">
      <stop offset="0" stop-color="#102214"/>
      <stop offset="0.55" stop-color="#071008"/>
      <stop offset="1" stop-color="#000000"/>
    </radialGradient>
    <filter id="glow"><feGaussianBlur stdDeviation="3" result="b"/><feMerge><feMergeNode in="b"/><feMergeNode in="SourceGraphic"/></feMerge></filter>
  </defs>
  <rect width="480" height="480" fill="url(#bg)"/>
  <rect x="16" y="16" width="448" height="448" rx="26" fill="none" stroke="#6eca4e" stroke-width="4" opacity="0.95" filter="url(#glow)"/>
  <rect x="26" y="26" width="428" height="428" rx="20" fill="none" stroke="#624622" stroke-width="3" opacity="0.9"/>
  <g stroke="#6b4b25" stroke-width="7" stroke-linecap="round" fill="#6eca4e">
    <path d="M28 56 C102 26, 162 44, 232 24" fill="none"/>
    <path d="M452 56 C378 26, 318 44, 248 24" fill="none"/>
    <ellipse cx="72" cy="46" rx="26" ry="10" transform="rotate(-24 72 46)"/>
    <ellipse cx="136" cy="42" rx="26" ry="10" transform="rotate(22 136 42)"/>
    <ellipse cx="344" cy="42" rx="26" ry="10" transform="rotate(-22 344 42)"/>
    <ellipse cx="408" cy="46" rx="26" ry="10" transform="rotate(24 408 46)"/>
  </g>
  <text x="240" y="220" text-anchor="middle" font-family="Impact, Copperplate, Arial Black, serif" font-size="42" fill="#cca85c" stroke="#2d1b0a" stroke-width="4" paint-order="stroke fill">KOALABYTE</text>
  <text x="240" y="270" text-anchor="middle" font-family="Impact, Copperplate, Arial Black, serif" font-size="48" fill="#1c8aff" stroke="#07152b" stroke-width="4" paint-order="stroke fill">BLUE</text>
</svg>
