<svg xmlns="http://www.w3.org/2000/svg" width="1200" height="760" viewBox="0 0 1200 760" role="img" aria-labelledby="title desc">
  <title id="title">that’s not a knife defensive monitor suite menu</title>
  <desc id="desc">KoalaByte Blue jungle eucalyptus themed screen showing the that’s not a knife monitor suite with individual monitors enabled.</desc>
  <defs>
    <radialGradient id="bg" cx="50%" cy="43%" r="72%"><stop offset="0" stop-color="#10382b"/><stop offset="0.58" stop-color="#041713"/><stop offset="1" stop-color="#010706"/></radialGradient>
    <filter id="glow" x="-30%" y="-30%" width="160%" height="160%"><feGaussianBlur stdDeviation="4" result="b"/><feMerge><feMergeNode in="b"/><feMergeNode in="SourceGraphic"/></feMerge></filter>
    <style>
      .title{font-family:Cooper Black,Arial Rounded MT Bold,DejaVu Sans,sans-serif;font-size:76px;font-weight:900;fill:#9bd968;stroke:#1f4c2a;stroke-width:3px;letter-spacing:1px}
      .header{font-family:Cooper Black,Arial Rounded MT Bold,DejaVu Sans,sans-serif;font-size:38px;font-weight:900;fill:#ffd866;letter-spacing:4px}
      .selected{font-family:Cooper Black,Arial Rounded MT Bold,DejaVu Sans,sans-serif;font-size:54px;font-weight:900;fill:#f1e98b;stroke:#315a24;stroke-width:2px}
      .subtitle{font-family:Cooper Black,Arial Rounded MT Bold,DejaVu Sans,sans-serif;font-size:31px;font-weight:900;fill:#70d778;letter-spacing:1px}
      .mono{font-family:DejaVu Sans Mono,monospace;font-size:35px;font-weight:900;fill:#a9ee9f}
      .mono2{font-family:DejaVu Sans Mono,monospace;font-size:31px;font-weight:900;fill:#f3df64}
      .status{font-family:DejaVu Sans Mono,monospace;font-size:29px;font-weight:800;fill:#9ce484}
      .footer{font-family:DejaVu Sans Mono,monospace;font-size:23px;font-weight:800;fill:#8be472}
      .leaf{fill:#58b76d;stroke:#c7ffa5;stroke-width:1.4}
      .branch{fill:none;stroke:#9a6b36;stroke-width:16;stroke-linecap:round}
      .twig{fill:none;stroke:#d2a35e;stroke-width:3;stroke-linecap:round}
    </style>
  </defs>
  <rect width="1200" height="760" rx="34" fill="url(#bg)"/>
  <path class="branch" d="M76 690 C34 536 42 242 128 64"/>
  <path class="branch" d="M1124 690 C1166 536 1158 242 1072 64"/>
  <path class="twig" d="M76 196 C138 156 173 132 224 88"/>
  <path class="twig" d="M1124 196 C1062 156 1027 132 976 88"/>
  <g opacity="0.98">
    <ellipse class="leaf" cx="96" cy="128" rx="16" ry="40" transform="rotate(-36 96 128)"/><ellipse class="leaf" cx="148" cy="116" rx="15" ry="34" transform="rotate(39 148 116)"/><ellipse class="leaf" cx="82" cy="266" rx="15" ry="38" transform="rotate(28 82 266)"/><ellipse class="leaf" cx="121" cy="400" rx="15" ry="37" transform="rotate(-42 121 400)"/><ellipse class="leaf" cx="90" cy="620" rx="18" ry="42" transform="rotate(52 90 620)"/>
    <ellipse class="leaf" cx="1104" cy="128" rx="16" ry="40" transform="rotate(36 1104 128)"/><ellipse class="leaf" cx="1052" cy="116" rx="15" ry="34" transform="rotate(-39 1052 116)"/><ellipse class="leaf" cx="1118" cy="266" rx="15" ry="38" transform="rotate(-28 1118 266)"/><ellipse class="leaf" cx="1079" cy="400" rx="15" ry="37" transform="rotate(42 1079 400)"/><ellipse class="leaf" cx="1110" cy="620" rx="18" ry="42" transform="rotate(-52 1110 620)"/>
  </g>
  <text x="600" y="90" text-anchor="middle" class="title">KoalaByte Blue</text>
  <text x="600" y="156" text-anchor="middle" class="header">DEFENSE / MONITORING</text>
  <rect x="250" y="178" width="700" height="82" rx="22" fill="#123f25" stroke="#e8df60" stroke-width="4" filter="url(#glow)"/>
  <ellipse class="leaf" cx="260" cy="220" rx="16" ry="40" transform="rotate(72 260 220)"/><ellipse class="leaf" cx="940" cy="220" rx="16" ry="40" transform="rotate(-72 940 220)"/>
  <text x="600" y="235" text-anchor="middle" class="selected">21. that’s not a knife</text>
  <text x="600" y="306" text-anchor="middle" class="subtitle">Always-on BLE defensive monitor suite</text>
  <rect x="195" y="335" width="810" height="245" rx="24" fill="rgba(5,26,20,0.86)" stroke="#d6a84d" stroke-width="4"/>
  <text x="240" y="390" class="mono">DOS PRESSURE</text><text x="610" y="390" class="mono">ON</text><text x="790" y="390" class="mono2">THRESHOLD 5</text>
  <text x="240" y="445" class="mono">BLUESNARFING</text><text x="610" y="445" class="mono">ON</text><text x="790" y="445" class="mono2">THRESHOLD 4</text>
  <text x="240" y="500" class="mono">BLUEBUGGING</text><text x="610" y="500" class="mono">ON</text><text x="790" y="500" class="mono2">THRESHOLD 4</text>
  <text x="240" y="555" class="mono">MITM GUARD</text><text x="610" y="555" class="mono">ON</text><text x="790" y="555" class="mono2">THRESHOLD 4</text>
  <rect x="195" y="605" width="810" height="78" rx="22" fill="rgba(7,31,25,0.88)" stroke="#d6a84d" stroke-width="3"/>
  <circle cx="245" cy="644" r="30" fill="#1b5e36" stroke="#9fe985" stroke-width="3"/>
  <text x="245" y="655" text-anchor="middle" font-family="DejaVu Sans,sans-serif" font-size="36">🐨</text>
  <text x="300" y="638" class="status">Local block: standby</text>
  <text x="300" y="672" class="status">XP only after successful block</text>
  <rect x="230" y="705" width="740" height="42" rx="18" fill="#09251c" stroke="#78c96e" stroke-width="2"/>
  <text x="600" y="733" text-anchor="middle" class="footer">B1 menu   B2 back   B3 select   B4 next   B5 up   B6 down</text>
</svg>
